<svg width="134" height="119" viewBox="0 0 134 119" fill="none" xmlns="http://www.w3.org/2000/svg">
<path d="M35.0283 84.7559C35.2849 84.256 35.6182 83.8528 36.2513 83.8461C36.9928 83.8378 37.5144 84.346 37.5228 85.1591C37.5378 86.4455 37.5228 87.7335 37.5228 89.0715H80.716V78.1224C80.4843 78.2774 80.2844 78.404 80.0911 78.5406C77.8716 80.1202 75.6471 81.6949 73.436 83.2862C72.9361 83.6427 72.4446 83.8227 71.8764 83.5178C71.3082 83.2129 71.1749 82.6946 71.2415 82.0848C71.2882 81.6516 71.2648 81.2117 71.3082 80.7768C71.3631 80.2086 71.0616 80.0969 70.6417 80.2869C70.1551 80.5068 69.6419 80.7385 69.2603 81.1001C68.7323 81.6252 68.263 82.2063 67.8606 82.833C67.3991 83.5278 66.9309 83.8144 66.281 83.6328C65.6645 83.4661 65.3878 82.9463 65.3978 82.1048C65.4145 80.7984 65.3978 79.4921 65.3978 78.1857C65.3979 78.0612 65.3879 77.937 65.3679 77.8141C65.1863 76.6911 64.7514 76.4495 63.7399 76.9977C61.3938 78.2707 59.6376 80.1553 58.2412 82.3948C58.0979 82.6247 57.9713 82.8646 57.818 83.0863C57.6473 83.3638 57.375 83.5637 57.0591 83.6434C56.7431 83.7231 56.4086 83.6762 56.1267 83.5128C55.5419 83.1646 55.2936 82.4397 55.6868 81.8382C56.4259 80.6605 57.2303 79.5251 58.0962 78.4374C59.2989 76.9656 60.7809 75.7463 62.4569 74.8498C65.2529 73.3685 67.6107 74.6749 67.889 77.8308C67.9156 78.1341 67.9406 78.439 67.9689 78.7706C68.6571 78.4607 69.267 78.089 69.9268 77.9158C70.5867 77.7425 71.3115 77.7625 72.113 77.6892C72.3579 76.4411 72.5928 75.0564 72.9128 73.6901C73.0477 73.0672 73.2847 72.471 73.6143 71.9255C75.8821 68.3447 78.1949 64.7922 80.476 61.218C80.6511 60.9441 80.749 60.6281 80.7593 60.3033C80.7749 50.4722 80.7787 40.6412 80.771 30.8102V30.2869H37.5277V73.5018C37.5277 73.7084 37.5377 73.9184 37.5277 74.125C37.4844 74.6998 37.1945 75.1131 36.6396 75.2748C36.3899 75.3589 36.1193 75.3581 35.8701 75.2725C35.6209 75.1869 35.4069 75.0213 35.2616 74.8015C35.1899 74.7065 35.1099 74.6182 35.0333 74.5266V27.7559H82.3972C83.0637 28.1274 83.2837 28.6907 83.282 29.4555C83.262 38.3101 83.2575 47.1652 83.2687 56.0209V56.854C83.5086 56.5041 83.6502 56.3092 83.7785 56.1075C85.9447 52.755 88.0825 49.3875 90.277 46.0499C91.3668 44.3836 92.9647 43.6304 94.9426 43.9204C97.0205 44.227 98.3251 45.4867 98.8967 47.5029C98.93 47.6178 98.985 47.7261 99.0283 47.8361V49.3358C98.6434 50.1539 98.3435 51.0288 97.8619 51.7836C93.1253 59.1852 88.3747 66.5785 83.6103 73.9634C83.408 74.2918 83.2991 74.6691 83.2953 75.0548C83.2737 80.0203 83.282 84.9875 83.2804 89.953C83.2804 91.2193 82.8755 91.6193 81.5891 91.6193C66.6404 91.6193 51.6922 91.6237 36.7446 91.6326C35.9764 91.6326 35.4116 91.4209 35.045 90.7461L35.0283 84.7559ZM90.6653 50.0223L75.9887 72.8103L79.7812 75.2398L94.4561 52.4568C93.1814 51.6436 91.9666 50.8588 90.6653 50.0223ZM95.7875 50.3439C96.4973 49.4475 96.7772 48.5343 96.2306 47.5262C96.0439 47.1484 95.7482 46.8353 95.3816 46.6273C95.0151 46.4194 94.5946 46.3262 94.1745 46.3598C93.143 46.4081 92.4749 46.9964 92.0533 47.9445L95.7875 50.3439ZM75.1356 75.2298C74.8524 76.7011 74.5891 78.0774 74.3025 79.6104L77.9266 77.021L75.1356 75.2298Z" fill="#011F43"/>
<path d="M35.0283 79.2702C35.11 79.1535 35.1849 79.0319 35.2716 78.9202C35.6315 78.4654 36.0931 78.2838 36.6513 78.4671C36.9 78.5455 37.1172 78.701 37.2717 78.911C37.4262 79.121 37.51 79.3747 37.511 79.6354C37.5119 79.8961 37.4299 80.1504 37.2769 80.3615C37.1239 80.5726 36.9077 80.7296 36.6596 80.8099C36.0981 80.9965 35.6415 80.8098 35.2766 80.3633C35.1867 80.255 35.11 80.1334 35.0283 80.0184V79.2702Z" fill="#011F43"/>
<path d="M43.3327 42.7144C43.3327 40.2206 43.3327 37.7273 43.3327 35.2346C43.3327 34.0265 43.7476 33.6133 44.9357 33.6133C49.3491 33.6133 53.762 33.6133 58.1743 33.6133C59.314 33.6133 59.7472 34.0515 59.7489 35.2079C59.7489 40.2156 59.7489 45.2222 59.7489 50.2277C59.7489 51.4241 59.3274 51.8473 58.1393 51.849H44.9624C43.7277 51.849 43.3344 51.4491 43.3327 50.1927C43.3305 47.7 43.3305 45.2072 43.3327 42.7144ZM47.945 43.8092C46.9336 41.4881 47.2468 39.6052 48.8631 38.2805C49.5777 37.6967 50.4637 37.3629 51.3858 37.3298C52.308 37.2967 53.2157 37.5662 53.9703 38.0972C54.7249 38.6275 55.2827 39.3927 55.5566 40.2733C55.9582 41.5147 55.7315 42.6828 55.1116 43.7992L57.2145 44.9189V36.1377H45.8838V44.9173L47.945 43.8092ZM57.0912 49.3229C56.9901 48.7092 56.7383 48.1302 56.3586 47.6376C55.9788 47.145 55.4828 46.7542 54.9151 46.5002C52.9272 45.5455 50.8693 45.4838 48.7964 46.2169C47.5901 46.6452 46.652 47.3934 46.1738 48.6214C46.1008 48.8513 46.0423 49.0856 45.9988 49.3229H57.0912ZM51.5408 39.8251C51.2058 39.8287 50.8792 39.9315 50.6023 40.1203C50.3255 40.3091 50.1108 40.5757 49.9851 40.8863C49.8595 41.197 49.8285 41.5378 49.8962 41.866C49.9639 42.1942 50.1272 42.4951 50.3656 42.7306C50.6039 42.9662 50.9066 43.126 51.2356 43.1898C51.5645 43.2537 51.9051 43.2187 52.2143 43.0894C52.5234 42.9601 52.7874 42.7423 52.973 42.4633C53.1585 42.1842 53.2574 41.8565 53.2571 41.5214C53.2518 41.0703 53.0684 40.6395 52.7469 40.3231C52.4255 40.0066 51.992 39.83 51.5408 39.8318V39.8251Z" fill="#011F43"/>
<path d="M59.7687 63.8751H45.4037C43.9274 63.8751 43.5625 63.5085 43.5625 62.0322C43.5625 60.3076 43.5625 58.583 43.5625 56.8667C43.5625 55.687 44.0074 55.2321 45.1738 55.2305C54.937 55.2305 64.7009 55.2305 74.4653 55.2305C75.61 55.2305 76.0366 55.6687 76.0382 56.8251C76.0382 58.6524 76.0382 60.4809 76.0382 62.3104C76.0382 63.4768 75.615 63.8801 74.3802 63.8801C69.5103 63.8789 64.6398 63.8773 59.7687 63.8751ZM73.5121 57.7598H46.0619V61.324H73.5188L73.5121 57.7598Z" fill="#011F43"/>
<path d="M53.8915 67.527C56.7242 67.527 59.5569 67.527 62.3895 67.527C63.0944 67.527 63.541 67.8603 63.7009 68.4535C63.7833 68.7034 63.7744 68.9745 63.6759 69.2185C63.5773 69.4625 63.3955 69.6638 63.1627 69.7865C62.8681 69.9358 62.5415 70.0108 62.2113 70.0048C60.8783 70.0281 59.5452 70.0148 58.2122 70.0148H45.7151C45.4867 70.0246 45.2578 70.0118 45.0319 69.9765C44.7319 69.9228 44.4624 69.7596 44.2758 69.5186C44.0892 69.2775 43.9988 68.9757 44.0222 68.6717C44.0386 68.3671 44.17 68.0799 44.3899 67.8684C44.6098 67.6568 44.9018 67.5367 45.2069 67.532C45.6851 67.507 46.1633 67.522 46.6432 67.522L53.8915 67.527Z" fill="#011F43"/>
<path d="M70.1878 36.0973C71.6658 36.0973 73.1421 36.0973 74.6201 36.0973C75.5032 36.0973 76.0264 36.5689 76.0314 37.327C76.0364 38.0852 75.5032 38.5834 74.6401 38.5868C71.6864 38.5956 68.732 38.5956 65.7771 38.5868C64.9356 38.5868 64.3791 38.0536 64.3908 37.3154C64.4025 36.5772 64.9257 36.1073 65.7572 36.1007C67.2368 36.0874 68.7148 36.0973 70.1878 36.0973Z" fill="#011F43"/>
<path d="M70.2574 41.5856C71.7137 41.5856 73.1701 41.5856 74.6264 41.5856C75.5096 41.5856 76.0327 42.0521 76.0344 42.812C76.036 43.5718 75.5029 44.0684 74.6381 44.0717C71.6832 44.0828 68.7289 44.0828 65.7751 44.0717C64.9287 44.0717 64.3805 43.5302 64.3938 42.792C64.4071 42.0539 64.9387 41.5873 65.8268 41.584C67.3048 41.5857 68.7811 41.5856 70.2574 41.5856Z" fill="#011F43"/>
<path d="M70.1964 49.5587C68.7401 49.5587 67.2837 49.5587 65.8274 49.5587C65.0409 49.5587 64.5128 49.1488 64.4061 48.5173C64.2728 47.7292 64.8394 47.0809 65.7108 47.0743C67.687 47.061 69.6632 47.0743 71.6395 47.0743C72.6392 47.0743 73.639 47.0743 74.6387 47.0743C75.5185 47.0826 76.04 47.5508 76.0367 48.3106C76.0334 49.0705 75.5052 49.5521 74.6304 49.5621C73.1507 49.5704 71.6728 49.5587 70.1964 49.5587Z" fill="#011F43"/>
<path d="M49.3223 72.7608C50.6136 72.7608 51.905 72.7608 53.1947 72.7608C54.0645 72.7608 54.6211 73.249 54.6311 73.9788C54.6411 74.7087 54.0695 75.2435 53.2247 75.2468C50.622 75.2602 48.0198 75.2602 45.4182 75.2468C44.5651 75.2468 44.0152 74.7154 44.0235 73.9772C44.0319 73.239 44.5634 72.7658 45.4515 72.7608C46.7412 72.7541 48.0259 72.7608 49.3223 72.7608Z" fill="#011F43"/>
</svg>
