<svg width="134" height="119" viewBox="0 0 134 119" fill="none" xmlns="http://www.w3.org/2000/svg">
<mask id="path-1-inside-1_10554_1693" fill="white">
<path d="M37.0896 92.7096C36.6053 92.4981 36.0694 92.3496 35.6368 92.0639C35.1241 91.7399 34.7043 91.2881 34.4188 90.753C34.1333 90.2178 33.9918 89.6177 34.0081 89.0114C33.9973 81.4279 33.9973 73.8443 34.0081 66.2608C34.0081 64.2947 35.364 62.7322 37.3269 62.6547C40.3261 62.5336 43.3349 62.6192 46.3389 62.6547C47.146 62.6547 47.8353 63.0324 48.3955 63.5973C48.6521 63.854 48.8506 63.8992 49.1703 63.712C49.9483 63.26 50.7538 62.8516 51.5383 62.4109C53.6504 61.2486 55.2572 59.3451 56.0484 57.0679C56.9524 54.568 57.8568 52.0676 58.7619 49.5667C59.2251 48.2915 59.7158 48.0364 61.0217 48.4529C61.8983 48.7338 62.7974 48.992 63.6206 49.3843C65.0738 50.0706 66.2305 51.2581 66.8781 52.7289C67.067 53.1389 67.2801 53.2858 67.7353 53.2826C70.7425 53.26 73.7498 53.2826 76.7554 53.2616C77.0653 53.2491 77.3743 53.3041 77.6608 53.4228C77.9474 53.5415 78.2046 53.7212 78.4148 53.9492C79.6868 55.2567 80.9814 56.5416 82.318 57.8879C82.5359 57.6813 82.7199 57.5166 82.8959 57.3423C84.0355 56.2124 85.1832 55.0727 86.3083 53.9202C86.5129 53.7014 86.7623 53.5295 87.0395 53.4161C87.3167 53.3027 87.6152 53.2506 87.9144 53.2632C90.5133 53.2826 93.1122 53.2729 95.7111 53.2632C96.9685 53.2632 97.4108 52.816 97.4108 51.5457C97.4108 44.6939 97.4108 37.8411 97.4108 30.9872C97.4108 29.7297 96.962 29.2874 95.6933 29.2874C78.8765 29.2874 62.0592 29.2874 45.2413 29.2874C43.9822 29.2874 43.5367 29.7346 43.5367 31.0001C43.5367 37.8529 43.5367 44.7057 43.5367 51.5586C43.5367 52.8193 43.9838 53.26 45.2493 53.2649C45.8514 53.2649 46.4536 53.2487 47.0541 53.2649C47.8531 53.2939 48.4068 53.8169 48.4246 54.5207C48.4423 55.2245 47.8692 55.8039 47.0411 55.8298C46.3551 55.8524 45.6658 55.8443 44.9798 55.8298C42.6085 55.7959 40.9798 54.172 40.9637 51.7943C40.9459 49.2374 40.9637 46.6805 40.9637 44.1235C40.9637 39.7404 40.9637 35.3579 40.9637 30.9759C40.9637 28.2818 42.5537 26.6934 45.251 26.6934H95.13C98.0355 26.6934 98.9153 27.2696 100 29.9218V52.6111C98.9169 55.2567 98.0436 55.8395 95.1332 55.8395C92.9637 55.8395 90.7958 55.8508 88.6279 55.8298C88.4389 55.8218 88.2505 55.8559 88.0763 55.9296C87.9021 56.0033 87.7465 56.1147 87.6207 56.2559C86.2841 57.6199 84.9266 58.9662 83.5739 60.3157C82.6764 61.2099 82.0468 61.2148 81.1606 60.3318C79.7901 58.9694 78.439 57.5877 77.0492 56.2463C76.791 56.012 76.4596 55.8745 76.1114 55.8572C73.6433 55.8249 71.1735 55.8395 68.7038 55.8395H67.6917L67.8628 55.9605C67.2171 58.1462 66.5634 60.3318 65.8983 62.5675H66.6021C69.6691 62.5675 72.736 62.5594 75.8111 62.5675C78.297 62.5772 80.0872 63.8782 80.7102 66.1365C81.0331 67.3391 80.8717 68.5078 80.2793 69.6409C82.3422 70.448 83.5674 71.9008 83.619 74.1091C83.6707 76.3173 82.4633 77.7878 80.5085 78.6982C81.2381 80.0541 81.3511 81.3988 80.8313 82.7887C80.3115 84.1785 79.2284 85.0679 77.8741 85.6313C78.7232 87.3149 78.6812 88.9162 77.7466 90.4739C76.9782 91.7572 75.7627 92.3802 74.3568 92.7047H54.9976C53.0099 92.4395 51.0648 91.9187 49.2106 91.1551C49.1361 91.1398 49.0589 91.143 48.986 91.1647C48.913 91.1864 48.8466 91.2258 48.7926 91.2794C48.1727 92.0865 47.3091 92.4642 46.3616 92.7047L37.0896 92.7096ZM60.9346 51.1567C60.1162 53.4166 59.3027 55.6232 58.5133 57.8427C57.6029 60.3883 56.092 62.4852 53.8321 63.9864C52.657 64.7693 51.3914 65.4198 50.1437 66.0849C49.7304 66.306 49.5787 66.5481 49.5787 67.0243C49.5959 73.083 49.6002 79.141 49.5916 85.1986C49.5916 86.1671 49.5754 87.1357 49.6045 88.1042C49.6121 88.2087 49.6434 88.3101 49.696 88.4007C49.7486 88.4913 49.8211 88.5688 49.908 88.6272C52.0065 89.5522 54.1824 90.1559 56.5052 90.1365C58.6521 90.1188 60.8007 90.1365 62.9492 90.1365C66.4714 90.1365 69.9936 90.1365 73.5158 90.1365C74.3745 90.1365 75.0751 89.854 75.5464 89.1195C76.4133 87.7701 75.5464 85.9573 73.9322 85.8702C72.3907 85.7846 70.841 85.8557 69.2945 85.8185C68.3825 85.7959 67.8579 85.2632 67.8838 84.4884C67.908 83.7426 68.4294 83.2809 69.3236 83.2551C70.0323 83.2357 70.7409 83.2551 71.4495 83.2551C72.9959 83.2551 74.5424 83.2551 76.0888 83.2551C76.7748 83.2551 77.4221 83.1405 77.9193 82.6175C78.5553 81.9509 78.7538 81.1648 78.4035 80.3028C78.0307 79.3972 77.3043 78.9452 76.3309 78.9388C74.1195 78.9259 71.9064 78.9388 69.6949 78.9388C68.4811 78.9388 67.8999 78.5352 67.8838 77.6845C67.8676 76.8048 68.4746 76.3608 69.6998 76.3608C72.707 76.3608 75.7143 76.3608 78.7216 76.3608C79.4254 76.3608 80.0404 76.1704 80.4972 75.6296C81.0815 74.9501 81.2204 74.1672 80.8539 73.3488C80.4875 72.5304 79.795 72.072 78.8652 72.0704C75.8143 72.0704 72.7651 72.0704 69.7143 72.0704C69.4148 72.0778 69.1155 72.0486 68.8232 71.9832C68.6244 71.9359 68.4404 71.8403 68.2873 71.7049C68.1343 71.5696 68.017 71.3985 67.9458 71.207C67.8746 71.0154 67.8517 70.8092 67.8792 70.6068C67.9067 70.4043 67.9836 70.2118 68.1033 70.0461C68.4261 69.5845 68.8878 69.494 69.4043 69.4957C71.4867 69.4957 73.5706 69.4957 75.6546 69.4957C75.9973 69.5019 76.3395 69.4689 76.6747 69.3972C77.1917 69.2705 77.6412 68.9521 77.9322 68.5064C78.2232 68.0607 78.334 67.5211 78.2421 66.9969C78.05 65.8411 77.1751 65.1712 75.8208 65.1696C72.0608 65.1696 68.3019 65.1696 64.544 65.1696C62.9072 65.1696 62.4455 64.5239 62.9572 62.992C63.5512 61.2164 64.1614 59.4602 64.7328 57.6845C65.7094 54.6159 64.0468 51.7427 60.9282 51.1567H60.9346ZM43.0831 65.155V80.3044C43.0831 80.4965 43.0831 80.6901 43.0831 80.8839C43.0298 81.7652 42.5568 82.2866 41.8127 82.2947C41.0685 82.3028 40.5746 81.7846 40.5213 80.9129C40.5068 80.6999 40.5213 80.4836 40.5213 80.2673V65.1453C39.6335 65.1453 38.8442 65.1453 38.0533 65.1453C36.9766 65.155 36.6005 65.5457 36.6005 66.6401C36.6005 73.9654 36.6005 81.2917 36.6005 88.6191C36.6005 89.7491 36.9701 90.1268 38.1049 90.1268C40.58 90.1268 43.0503 90.1268 45.5157 90.1268C46.6877 90.1268 47.0379 89.7685 47.0379 88.5756C47.0379 84.708 47.0379 80.8403 47.0379 76.9726C47.0379 73.4924 47.0379 70.0122 47.0379 66.532C47.0379 65.6668 46.6908 65.2019 45.9289 65.1632C44.9991 65.1212 44.0984 65.155 43.0766 65.155H43.0831Z"/>
</mask>
<path d="M37.0896 92.7096C36.6053 92.4981 36.0694 92.3496 35.6368 92.0639C35.1241 91.7399 34.7043 91.2881 34.4188 90.753C34.1333 90.2178 33.9918 89.6177 34.0081 89.0114C33.9973 81.4279 33.9973 73.8443 34.0081 66.2608C34.0081 64.2947 35.364 62.7322 37.3269 62.6547C40.3261 62.5336 43.3349 62.6192 46.3389 62.6547C47.146 62.6547 47.8353 63.0324 48.3955 63.5973C48.6521 63.854 48.8506 63.8992 49.1703 63.712C49.9483 63.26 50.7538 62.8516 51.5383 62.4109C53.6504 61.2486 55.2572 59.3451 56.0484 57.0679C56.9524 54.568 57.8568 52.0676 58.7619 49.5667C59.2251 48.2915 59.7158 48.0364 61.0217 48.4529C61.8983 48.7338 62.7974 48.992 63.6206 49.3843C65.0738 50.0706 66.2305 51.2581 66.8781 52.7289C67.067 53.1389 67.2801 53.2858 67.7353 53.2826C70.7425 53.26 73.7498 53.2826 76.7554 53.2616C77.0653 53.2491 77.3743 53.3041 77.6608 53.4228C77.9474 53.5415 78.2046 53.7212 78.4148 53.9492C79.6868 55.2567 80.9814 56.5416 82.318 57.8879C82.5359 57.6813 82.7199 57.5166 82.8959 57.3423C84.0355 56.2124 85.1832 55.0727 86.3083 53.9202C86.5129 53.7014 86.7623 53.5295 87.0395 53.4161C87.3167 53.3027 87.6152 53.2506 87.9144 53.2632C90.5133 53.2826 93.1122 53.2729 95.7111 53.2632C96.9685 53.2632 97.4108 52.816 97.4108 51.5457C97.4108 44.6939 97.4108 37.8411 97.4108 30.9872C97.4108 29.7297 96.962 29.2874 95.6933 29.2874C78.8765 29.2874 62.0592 29.2874 45.2413 29.2874C43.9822 29.2874 43.5367 29.7346 43.5367 31.0001C43.5367 37.8529 43.5367 44.7057 43.5367 51.5586C43.5367 52.8193 43.9838 53.26 45.2493 53.2649C45.8514 53.2649 46.4536 53.2487 47.0541 53.2649C47.8531 53.2939 48.4068 53.8169 48.4246 54.5207C48.4423 55.2245 47.8692 55.8039 47.0411 55.8298C46.3551 55.8524 45.6658 55.8443 44.9798 55.8298C42.6085 55.7959 40.9798 54.172 40.9637 51.7943C40.9459 49.2374 40.9637 46.6805 40.9637 44.1235C40.9637 39.7404 40.9637 35.3579 40.9637 30.9759C40.9637 28.2818 42.5537 26.6934 45.251 26.6934H95.13C98.0355 26.6934 98.9153 27.2696 100 29.9218V52.6111C98.9169 55.2567 98.0436 55.8395 95.1332 55.8395C92.9637 55.8395 90.7958 55.8508 88.6279 55.8298C88.4389 55.8218 88.2505 55.8559 88.0763 55.9296C87.9021 56.0033 87.7465 56.1147 87.6207 56.2559C86.2841 57.6199 84.9266 58.9662 83.5739 60.3157C82.6764 61.2099 82.0468 61.2148 81.1606 60.3318C79.7901 58.9694 78.439 57.5877 77.0492 56.2463C76.791 56.012 76.4596 55.8745 76.1114 55.8572C73.6433 55.8249 71.1735 55.8395 68.7038 55.8395H67.6917L67.8628 55.9605C67.2171 58.1462 66.5634 60.3318 65.8983 62.5675H66.6021C69.6691 62.5675 72.736 62.5594 75.8111 62.5675C78.297 62.5772 80.0872 63.8782 80.7102 66.1365C81.0331 67.3391 80.8717 68.5078 80.2793 69.6409C82.3422 70.448 83.5674 71.9008 83.619 74.1091C83.6707 76.3173 82.4633 77.7878 80.5085 78.6982C81.2381 80.0541 81.3511 81.3988 80.8313 82.7887C80.3115 84.1785 79.2284 85.0679 77.8741 85.6313C78.7232 87.3149 78.6812 88.9162 77.7466 90.4739C76.9782 91.7572 75.7627 92.3802 74.3568 92.7047H54.9976C53.0099 92.4395 51.0648 91.9187 49.2106 91.1551C49.1361 91.1398 49.0589 91.143 48.986 91.1647C48.913 91.1864 48.8466 91.2258 48.7926 91.2794C48.1727 92.0865 47.3091 92.4642 46.3616 92.7047L37.0896 92.7096ZM60.9346 51.1567C60.1162 53.4166 59.3027 55.6232 58.5133 57.8427C57.6029 60.3883 56.092 62.4852 53.8321 63.9864C52.657 64.7693 51.3914 65.4198 50.1437 66.0849C49.7304 66.306 49.5787 66.5481 49.5787 67.0243C49.5959 73.083 49.6002 79.141 49.5916 85.1986C49.5916 86.1671 49.5754 87.1357 49.6045 88.1042C49.6121 88.2087 49.6434 88.3101 49.696 88.4007C49.7486 88.4913 49.8211 88.5688 49.908 88.6272C52.0065 89.5522 54.1824 90.1559 56.5052 90.1365C58.6521 90.1188 60.8007 90.1365 62.9492 90.1365C66.4714 90.1365 69.9936 90.1365 73.5158 90.1365C74.3745 90.1365 75.0751 89.854 75.5464 89.1195C76.4133 87.7701 75.5464 85.9573 73.9322 85.8702C72.3907 85.7846 70.841 85.8557 69.2945 85.8185C68.3825 85.7959 67.8579 85.2632 67.8838 84.4884C67.908 83.7426 68.4294 83.2809 69.3236 83.2551C70.0323 83.2357 70.7409 83.2551 71.4495 83.2551C72.9959 83.2551 74.5424 83.2551 76.0888 83.2551C76.7748 83.2551 77.4221 83.1405 77.9193 82.6175C78.5553 81.9509 78.7538 81.1648 78.4035 80.3028C78.0307 79.3972 77.3043 78.9452 76.3309 78.9388C74.1195 78.9259 71.9064 78.9388 69.6949 78.9388C68.4811 78.9388 67.8999 78.5352 67.8838 77.6845C67.8676 76.8048 68.4746 76.3608 69.6998 76.3608C72.707 76.3608 75.7143 76.3608 78.7216 76.3608C79.4254 76.3608 80.0404 76.1704 80.4972 75.6296C81.0815 74.9501 81.2204 74.1672 80.8539 73.3488C80.4875 72.5304 79.795 72.072 78.8652 72.0704C75.8143 72.0704 72.7651 72.0704 69.7143 72.0704C69.4148 72.0778 69.1155 72.0486 68.8232 71.9832C68.6244 71.9359 68.4404 71.8403 68.2873 71.7049C68.1343 71.5696 68.017 71.3985 67.9458 71.207C67.8746 71.0154 67.8517 70.8092 67.8792 70.6068C67.9067 70.4043 67.9836 70.2118 68.1033 70.0461C68.4261 69.5845 68.8878 69.494 69.4043 69.4957C71.4867 69.4957 73.5706 69.4957 75.6546 69.4957C75.9973 69.5019 76.3395 69.4689 76.6747 69.3972C77.1917 69.2705 77.6412 68.9521 77.9322 68.5064C78.2232 68.0607 78.334 67.5211 78.2421 66.9969C78.05 65.8411 77.1751 65.1712 75.8208 65.1696C72.0608 65.1696 68.3019 65.1696 64.544 65.1696C62.9072 65.1696 62.4455 64.5239 62.9572 62.992C63.5512 61.2164 64.1614 59.4602 64.7328 57.6845C65.7094 54.6159 64.0468 51.7427 60.9282 51.1567H60.9346ZM43.0831 65.155V80.3044C43.0831 80.4965 43.0831 80.6901 43.0831 80.8839C43.0298 81.7652 42.5568 82.2866 41.8127 82.2947C41.0685 82.3028 40.5746 81.7846 40.5213 80.9129C40.5068 80.6999 40.5213 80.4836 40.5213 80.2673V65.1453C39.6335 65.1453 38.8442 65.1453 38.0533 65.1453C36.9766 65.155 36.6005 65.5457 36.6005 66.6401C36.6005 73.9654 36.6005 81.2917 36.6005 88.6191C36.6005 89.7491 36.9701 90.1268 38.1049 90.1268C40.58 90.1268 43.0503 90.1268 45.5157 90.1268C46.6877 90.1268 47.0379 89.7685 47.0379 88.5756C47.0379 84.708 47.0379 80.8403 47.0379 76.9726C47.0379 73.4924 47.0379 70.0122 47.0379 66.532C47.0379 65.6668 46.6908 65.2019 45.9289 65.1632C44.9991 65.1212 44.0984 65.155 43.0766 65.155H43.0831Z" fill="#011F43" stroke="#011F43" stroke-width="0.4" mask="url(#path-1-inside-1_10554_1693)"/>
<path d="M93.4848 41.3632C94.0836 40.7465 94.3338 40.0169 94.0449 39.1823C93.7559 38.3478 93.1345 37.9136 92.2822 37.7812M93.4848 41.3632L90.5663 37.5117C90.9461 37.6012 91.3348 37.6523 91.7238 37.7035C91.9102 37.728 92.0966 37.7525 92.2822 37.7812M93.4848 41.3632C93.3197 41.5334 93.1483 41.698 92.9768 41.8627C92.7142 42.1151 92.4514 42.3675 92.2111 42.64L93.4848 41.3632ZM92.2822 37.7812L92.2515 37.9789M92.2822 37.7812L92.2515 37.9789C92.2515 37.9789 92.2515 37.9789 92.2515 37.9789M92.2515 37.9789C92.6524 38.0411 92.9872 38.1725 93.2528 38.3769C93.5171 38.5804 93.723 38.8639 93.8559 39.2478C94.1149 39.996 93.8996 40.649 93.3413 41.2238L93.3412 41.2239C93.1788 41.3913 93.0107 41.5528 92.8396 41.7172C92.7937 41.7614 92.7475 41.8057 92.7012 41.8504C92.484 42.0601 92.2653 42.2762 92.0611 42.5077L92.0611 42.5077L92.0574 42.5122C91.8711 42.7361 91.7753 43.0216 91.7886 43.3126L91.7884 43.3126L91.7892 43.3214C91.8191 43.6538 91.8755 43.9793 91.931 44.2953L91.9367 44.3276C91.9907 44.6347 92.0431 44.9327 92.0735 45.2331M92.2515 37.9789C92.0757 37.9516 91.8945 37.9278 91.7108 37.9036C91.3162 37.8516 90.91 37.7981 90.5204 37.7063L90.5148 37.705L90.5148 37.7049C90.2171 37.6257 89.9581 37.4415 89.7856 37.1862L89.7797 37.1775L89.7799 37.1774C89.615 36.9034 89.4732 36.6178 89.3375 36.3367C89.3143 36.2885 89.2912 36.2404 89.2682 36.1926C89.1562 35.9594 89.0465 35.7311 88.9263 35.5084M92.0735 45.2331L89.1022 35.4132M92.0735 45.2331C92.1558 46.0564 91.8374 46.7006 91.3327 47.0565C90.8278 47.4125 90.1098 47.4987 89.3542 47.1495L92.0735 45.2331ZM92.0735 45.2331C92.0735 45.2331 92.0735 45.2331 92.0735 45.2331L92.2725 45.213L92.0735 45.233C92.0735 45.233 92.0735 45.233 92.0735 45.2331ZM88.9263 35.5084C88.9263 35.5084 88.9264 35.5085 88.9264 35.5085L89.1022 35.4132M88.9263 35.5084C88.9263 35.5083 88.9263 35.5083 88.9262 35.5082L89.1022 35.4132M88.9263 35.5084C88.5735 34.8577 88.0407 34.4983 87.2884 34.4833M89.1022 35.4132C88.718 34.7046 88.1224 34.2994 87.2911 34.2833M87.2884 34.4833C87.2888 34.4833 87.2893 34.4833 87.2897 34.4833L87.2911 34.2833M87.2884 34.4833C86.4209 34.4777 85.7891 34.9002 85.5341 35.6522M87.2884 34.4833C87.288 34.4832 87.2876 34.4832 87.2872 34.4832L87.2911 34.2833M87.2911 34.2833L85.5341 35.6522M85.5341 35.6522C85.5342 35.6518 85.5344 35.6514 85.5345 35.651L85.3443 35.5891L85.5338 35.6533C85.5339 35.6529 85.534 35.6525 85.5341 35.6522ZM85.5341 35.6522C85.2785 36.4377 84.8992 37.0325 84.3576 37.4273C83.8155 37.8225 83.1333 38.0008 82.3035 37.9957L82.3033 37.9957C81.5229 37.99 80.9392 38.453 80.6702 39.2495C80.4008 40.0475 80.5864 40.7781 81.2167 41.2278M85.5341 35.6522L82.3047 37.7957C81.425 37.7893 80.7729 38.3203 80.4807 39.1856C80.1886 40.0508 80.3855 40.8805 81.1006 41.3906M81.2167 41.2278C81.2166 41.2277 81.2166 41.2277 81.2165 41.2276L81.1006 41.3906M81.2167 41.2278L81.1006 41.3906M81.2167 41.2278C81.9226 41.7302 82.3764 42.3006 82.5803 42.9631C82.7837 43.6243 82.73 44.3511 82.4708 45.1519L82.4708 45.1521C82.243 45.8538 82.5206 46.5135 83.1382 46.9864L83.1435 46.9904L83.1434 46.9905C83.4228 47.2196 83.7651 47.3585 84.125 47.3891C84.485 47.4197 84.8459 47.3405 85.1599 47.1619L85.1678 47.1574L85.1679 47.1576C85.3553 47.0619 85.5455 46.9594 85.738 46.8556C86.0967 46.6621 86.4635 46.4643 86.8354 46.299L86.845 46.2948L86.8451 46.295C87.1141 46.192 87.4116 46.192 87.6806 46.295L87.6898 46.2985L87.6897 46.2988C87.9822 46.4276 88.2632 46.5781 88.5366 46.7263C88.5551 46.7363 88.5735 46.7462 88.5919 46.7562C88.848 46.895 89.0976 47.0304 89.354 47.1494L82.2805 45.0903M81.1006 41.3906C82.4613 42.3591 82.7826 43.5391 82.2805 45.0903M82.2805 45.0903C82.0207 45.891 82.3484 46.6335 83.0166 47.1452L82.2805 45.0903ZM89.4317 44.723L89.9579 45.114L89.7395 44.4958C89.4276 43.613 89.3971 42.8523 89.6155 42.1839C89.8343 41.5145 90.3107 40.9133 91.0575 40.3654L91.5741 39.9863L90.9336 40.0042C89.9847 40.0307 89.2543 39.819 88.6952 39.3997C88.1347 38.9793 87.7246 38.334 87.448 37.4533L87.2512 36.8268L87.0653 37.4567C86.7983 38.3617 86.3783 39.0014 85.8091 39.4157C85.2394 39.8305 84.4985 40.0355 83.5602 40.03L82.9044 40.0262L83.4464 40.3953C84.226 40.9262 84.6938 41.5222 84.9057 42.1879C85.1182 42.8553 85.0816 43.618 84.8049 44.4959L84.6182 45.088L85.1154 44.7162C85.8653 44.1553 86.5782 43.8927 87.2765 43.896C87.9753 43.8994 88.6862 44.1692 89.4317 44.723Z" fill="#011F43" stroke="#011F43" stroke-width="0.4"/>
<path d="M58.5428 47.0425L58.5433 47.0421C59.2321 46.5542 59.5107 45.8444 59.2757 45.115C59.0206 44.3254 58.9693 43.6123 59.1703 42.9641C59.3716 42.3147 59.8178 41.7571 60.507 41.2639C61.1605 40.7958 61.338 40.0193 61.067 39.2317C60.7989 38.4523 60.2065 38.0046 59.4102 37.9945L59.4127 37.7945M58.5428 47.0425L56.412 35.6379M58.5428 47.0425C57.8993 47.5015 57.2173 47.4955 56.4988 47.1333L56.4982 47.133C56.3456 47.0567 56.1909 46.9636 56.0302 46.8635C55.9928 46.8401 55.9548 46.8163 55.9165 46.7922C55.7933 46.7148 55.6665 46.6352 55.5406 46.5622C55.2135 46.3725 54.8507 46.2012 54.4707 46.2031C54.0907 46.205 53.728 46.3812 53.401 46.573C53.2775 46.6454 53.1602 46.719 53.046 46.7907C52.8405 46.9198 52.6447 47.0427 52.4398 47.1413M58.5428 47.0425L52.4398 47.1413M59.4127 37.7945L59.4104 37.9945C58.6167 37.9853 57.9404 37.8232 57.3977 37.4472C56.8531 37.0698 56.4655 36.4927 56.2209 35.6969M59.4127 37.7945C60.2989 37.8058 60.9624 38.3127 61.2562 39.1666C61.5499 40.0205 61.3627 40.897 60.6234 41.4265M59.4127 37.7945L60.6234 41.4265M56.2209 35.6969C56.2208 35.6968 56.2208 35.6967 56.2208 35.6966L56.412 35.6379M56.2209 35.6969C56.2209 35.6969 56.2209 35.697 56.2209 35.697L56.412 35.6379M56.2209 35.6969C55.9842 34.9322 55.3679 34.4896 54.4932 34.4852C53.6164 34.4807 52.9896 34.9115 52.7479 35.6739M56.412 35.6379C56.1472 34.7823 55.4482 34.29 54.4942 34.2852C53.5402 34.2804 52.8284 34.7582 52.5572 35.6137M52.7479 35.6739C52.7479 35.6738 52.7479 35.6738 52.748 35.6737L52.5572 35.6137M52.7479 35.6739C52.4957 36.4755 52.1087 37.0653 51.5602 37.4517C51.0128 37.8374 50.3276 38.0042 49.5096 38.0042C48.7514 38.0042 48.1735 38.4533 47.8994 39.2088M52.7479 35.6739C52.7479 35.674 52.7479 35.674 52.7478 35.6741L52.5572 35.6137M52.5572 35.6137L47.8994 39.2088M47.8994 39.2088C47.8994 39.2088 47.8994 39.2087 47.8994 39.2087L47.7113 39.1407L47.8993 39.2089C47.8994 39.2089 47.8994 39.2089 47.8994 39.2088ZM47.8994 39.2088C47.7585 39.5988 47.7432 39.9587 47.8291 40.2906C47.9154 40.6239 48.107 40.9414 48.3992 41.239M47.8994 39.2088L48.257 41.3797M48.3992 41.239C48.399 41.2389 48.3989 41.2387 48.3987 41.2385L48.257 41.3797M48.3992 41.239C48.3994 41.2392 48.3995 41.2393 48.3997 41.2395L48.257 41.3797M48.3992 41.239C48.4389 41.2789 48.4784 41.3187 48.5179 41.3583C48.8745 41.7169 49.2221 42.0665 49.5927 42.3928M48.257 41.3797C48.2969 41.4197 48.3366 41.4597 48.3764 41.4997C48.7325 41.8578 49.0851 42.2124 49.4612 42.5435M49.5927 42.3928C49.5924 42.3926 49.5922 42.3924 49.5919 42.3921L49.4612 42.5435M49.5927 42.3928C49.7483 42.5273 49.8745 42.6766 49.9421 42.8626C50.0106 43.051 50.0108 43.2541 49.9559 43.4813M49.5927 42.3928C49.5929 42.393 49.5931 42.3932 49.5933 42.3934L49.4612 42.5435M49.4612 42.5435L49.9559 43.4813M49.9559 43.4813C49.9559 43.4812 49.9559 43.481 49.956 43.4809L49.7614 43.4345L49.9558 43.4816C49.9558 43.4815 49.9558 43.4814 49.9559 43.4813ZM49.9559 43.4813C49.842 43.9591 49.7732 44.444 49.7139 44.8617C49.6929 45.0097 49.6731 45.1493 49.6529 45.2771M49.9559 43.4813L49.653 45.263C49.653 45.2677 49.6529 45.2724 49.6529 45.2771M49.6529 45.2771C49.6449 46.136 50.0011 46.7615 50.5122 47.0935C51.0266 47.4276 51.7264 47.4833 52.4398 47.1413M49.6529 45.2771L52.4398 47.1413M60.6234 41.4265C59.2949 42.3772 58.9721 43.5249 59.466 45.0536L60.6234 41.4265ZM54.7664 37.534L54.6547 37.1215L54.4095 37.4716C54.2437 37.7084 54.0917 37.9599 53.949 38.1963C53.8682 38.33 53.7903 38.4588 53.7146 38.5775C53.4967 38.9185 53.2824 39.1994 53.0163 39.392C52.7492 39.5852 52.4105 39.7065 52.0115 39.8143C51.8701 39.8525 51.7178 39.8897 51.5597 39.9284C51.2879 39.9948 50.999 40.0653 50.719 40.1524L50.2925 40.2849L50.6754 40.5148C51.4719 40.9932 51.9269 41.5665 52.1297 42.2204C52.334 42.8792 52.2902 43.6454 52.0389 44.5206L51.8647 45.1272L52.3565 44.7316C53.0959 44.1368 53.8024 43.8828 54.4964 43.8936C55.1938 43.9045 55.9052 44.1832 56.6509 44.7042L57.1537 45.0555L56.9546 44.4754C56.6527 43.5953 56.6256 42.8397 56.844 42.1762C57.0627 41.5118 57.5357 40.9152 58.2786 40.3688L58.7925 39.9908L58.1548 40.0078C57.2147 40.0328 56.4859 39.828 55.9374 39.4215C55.389 39.0152 54.9985 38.3907 54.7664 37.534Z" fill="#011F43" stroke="#011F43" stroke-width="0.4"/>
<path d="M65.8317 38.0154C66.6672 38.0104 67.3734 37.844 67.9388 37.4531C68.5062 37.0607 68.9086 36.4582 69.1659 35.6259L69.1659 35.6257C69.3906 34.8963 70.0146 34.4837 70.8695 34.4852C71.7254 34.4867 72.3465 34.8934 72.5757 35.6265L72.5757 35.6267C72.8356 36.4556 73.2395 37.0577 73.8077 37.4503C74.374 37.8416 75.0806 38.0088 75.9167 38.0121H75.9175C76.64 38.0121 77.1906 38.4782 77.4566 39.2165L77.4566 39.2166C77.7256 39.9624 77.5353 40.6221 76.9821 41.1992C76.8062 41.3824 76.6229 41.5582 76.4362 41.7372C76.398 41.7739 76.3596 41.8106 76.3212 41.8476C76.0964 42.0639 75.8695 42.2865 75.658 42.5254L75.6578 42.5252L75.6513 42.5333C75.4715 42.7589 75.3824 43.0437 75.4016 43.3315L75.4015 43.3315L75.402 43.3364C75.4318 43.664 75.4843 43.9906 75.5356 44.3091C75.5438 44.3606 75.5521 44.4118 75.5602 44.4628C75.619 44.833 75.6713 45.1936 75.6854 45.5536L75.6854 45.554C75.7071 46.0833 75.5037 46.5435 75.1294 46.8691C74.7599 47.1906 74.2114 47.3909 73.5229 47.3775C72.9303 47.1268 72.3522 46.8431 71.7914 46.5276C71.4822 46.3376 71.1805 46.2247 70.8682 46.2225C70.5537 46.2204 70.2537 46.3308 69.9491 46.5413C69.5605 46.7872 69.1535 47.0029 68.7319 47.1866L68.7244 47.1898L68.7173 47.1937C68.4082 47.3594 68.0569 47.4298 67.7078 47.396C67.3587 47.3621 67.0275 47.2256 66.756 47.0036L66.756 47.0035L66.7509 46.9996C66.1688 46.5543 65.9454 45.9318 66.0509 45.1916M65.8317 38.0154C65.8316 38.0154 65.8316 38.0154 65.8315 38.0154L65.8303 37.8154L65.8318 38.0154C65.8318 38.0154 65.8317 38.0154 65.8317 38.0154ZM65.8317 38.0154C65.0812 38.0211 64.5169 38.5062 64.2745 39.2735L64.273 39.2784L64.2729 39.2783C64.1587 39.6104 64.1437 39.9684 64.2296 40.3089C64.3156 40.6493 64.4988 40.9574 64.7569 41.1954L64.7634 41.2014L64.7633 41.2015C64.9022 41.3415 65.0508 41.4823 65.202 41.6255C65.4911 41.8993 65.7895 42.1819 66.0473 42.4848L66.0521 42.4905L66.052 42.4906C66.2548 42.7478 66.3582 43.0695 66.3433 43.3967L66.343 43.4044L66.3428 43.4044C66.3169 43.713 66.264 44.0169 66.2081 44.3131C66.1966 44.3739 66.185 44.4343 66.1735 44.4943C66.1284 44.7295 66.0843 44.9595 66.0509 45.1916M66.0509 45.1916C66.0509 45.1916 66.0509 45.1915 66.0509 45.1915L65.8529 45.1632L66.0509 45.1917C66.0509 45.1917 66.0509 45.1917 66.0509 45.1916ZM74.5401 40.4044L74.7119 40.178L74.4408 40.0927C74.2182 40.0227 73.9709 39.9641 73.7306 39.9072C73.5817 39.8719 73.4354 39.8373 73.2994 39.8009C72.9266 39.7013 72.5925 39.5814 72.3264 39.3862C72.0604 39.191 71.8462 38.9079 71.6415 38.5837C71.5598 38.4543 71.4818 38.322 71.4027 38.1878C71.383 38.1543 71.3632 38.1207 71.3433 38.087C71.2445 37.9201 71.1428 37.7519 71.0344 37.5951L70.8692 37.3563L70.705 37.5958C70.5991 37.7501 70.5 37.9169 70.4035 38.0828C70.3837 38.1168 70.3641 38.1508 70.3445 38.1846C70.2675 38.3177 70.1914 38.4491 70.1114 38.5779C69.9102 38.9018 69.6983 39.1847 69.4334 39.3777C69.1673 39.5715 68.8245 39.6947 68.4183 39.8057C68.2768 39.8443 68.1249 39.8821 67.9673 39.9212C67.6879 39.9906 67.3906 40.0645 67.1018 40.1558L66.672 40.2916L67.0611 40.5191C67.8548 40.9833 68.313 41.5489 68.5179 42.1977C68.7243 42.8512 68.6819 43.6149 68.4231 44.4865L68.2524 45.0615L68.734 44.704C69.4823 44.1487 70.1955 43.8915 70.8754 43.8967C71.5543 43.902 72.2256 44.169 72.8906 44.7098L73.2168 44.9751V44.5547V44.5531C73.2168 44.2651 73.1982 43.9735 73.1807 43.6988C73.1706 43.5406 73.1609 43.388 73.1553 43.245C73.1394 42.839 73.1538 42.482 73.2584 42.1654C73.3627 41.8496 73.5637 41.5601 73.8042 41.2699C73.9006 41.1535 74.0006 41.0402 74.102 40.9254C74.1268 40.8973 74.1518 40.869 74.1768 40.8406C74.3021 40.698 74.4277 40.5526 74.5401 40.4044Z" fill="#011F43" stroke="#011F43" stroke-width="0.4"/>
<path d="M53.7779 54.5783C53.7688 54.8066 53.6926 55.027 53.5588 55.2122C53.4248 55.3976 53.2389 55.5393 53.0245 55.6194C52.8102 55.6995 52.577 55.7145 52.3542 55.6625C52.1314 55.6105 51.9289 55.4937 51.7722 55.327C51.6155 55.1602 51.5116 54.9509 51.4736 54.7252C51.4355 54.4996 51.465 54.2678 51.5583 54.0589C51.6517 53.8499 51.8046 53.6733 51.998 53.5511C52.1911 53.429 52.4159 53.3666 52.6443 53.3718C52.9527 53.3867 53.2434 53.5209 53.4549 53.746C53.6664 53.9711 53.7822 54.2695 53.7779 54.5783Z" fill="#011F43" stroke="#011F43" stroke-width="0.2"/>
<path d="M40.9781 84.8287C41.198 84.6124 41.4932 84.4898 41.8015 84.4867C42.1103 84.4969 42.403 84.6266 42.6179 84.8485C42.8332 85.0707 42.9537 85.368 42.9537 85.6774C42.9516 85.8303 42.9195 85.9812 42.8592 86.1217C42.7989 86.2624 42.7114 86.3898 42.6018 86.4967C42.4921 86.6035 42.3626 86.6877 42.2204 86.7445C42.0783 86.8012 41.9263 86.8295 41.7732 86.8275C41.6202 86.8256 41.469 86.7935 41.3284 86.7331C41.1877 86.6727 41.0603 86.5852 40.9534 86.4756C40.8466 86.366 40.7624 86.2364 40.7056 86.0943C40.6489 85.9523 40.6207 85.8006 40.6225 85.6477C40.6304 85.339 40.7579 85.0453 40.9781 84.8287Z" fill="#011F43" stroke="#011F43" stroke-width="0.2"/>
</svg>
