<svg width="134" height="119" viewBox="0 0 134 119" fill="none" xmlns="http://www.w3.org/2000/svg">
<path d="M49.0794 58.7721C50.919 58.7721 52.7585 58.7721 54.6 58.7721C55.8302 58.7721 56.4698 59.374 56.5849 60.5966C57.0867 65.9927 61.2772 70.2906 66.3959 70.6604C72.0996 71.0717 76.89 67.6416 78.1711 62.2135C78.2851 61.6839 78.3651 61.1477 78.4107 60.6079C78.5334 59.3778 79.1654 58.7759 80.3861 58.7721C84.0665 58.7721 87.7476 58.7721 91.4293 58.7721C92.6443 58.7721 93.3254 59.4268 93.3688 60.6249C93.3896 61.1664 93.3933 61.7116 93.3688 62.2531C93.2914 63.7757 92.2594 64.7927 90.7463 64.8625C88.3067 64.9776 86.6275 66.4624 86.269 68.868C86.0803 70.1887 86.4728 71.3359 87.335 72.3358C88.7142 73.9339 88.6746 75.166 87.1897 76.6471C86.1897 77.6489 85.1936 78.6546 84.186 79.6489C82.9729 80.8451 81.5446 80.8979 80.2842 79.764C78.8277 78.4433 77.1843 78.0942 75.3787 78.8602C73.5731 79.6262 72.675 81.0507 72.6015 83.011C72.5467 84.5204 71.5015 85.5771 69.9807 85.6148C68.3317 85.6551 66.6808 85.6551 65.028 85.6148C63.4809 85.579 62.464 84.5148 62.3961 82.9488C62.3093 81.0205 61.4093 79.615 59.6339 78.8621C57.8584 78.1093 56.2283 78.4168 54.7811 79.7092C53.4415 80.9073 52.0473 80.8677 50.7775 79.6074C49.7046 78.5457 48.6354 77.4766 47.57 76.3999C46.404 75.2188 46.3549 73.7811 47.47 72.5547C48.7907 71.1001 49.153 69.4586 48.3964 67.6492C47.6398 65.8398 46.1814 64.9172 44.1909 64.8493C42.7362 64.7984 41.706 63.7436 41.6286 62.2569C41.6003 61.6908 41.6003 61.1248 41.6286 60.5588C41.6815 59.4268 42.3588 58.7739 43.4833 58.7664C45.3512 58.7626 47.2153 58.774 49.0794 58.7721ZM43.6079 60.7815C43.6079 61.2343 43.6079 61.6078 43.6079 61.9814C43.5947 62.5889 43.855 62.8644 44.4908 62.9021C47.1832 63.0587 49.153 64.3549 50.2133 66.8398C51.2963 69.3812 50.8548 71.734 49.0115 73.7962C48.5605 74.3 48.6153 74.6698 49.0775 75.1169C50.1114 76.1169 51.1322 77.1319 52.1284 78.1696C52.6057 78.6677 52.9868 78.6772 53.5076 78.2168C55.5528 76.3999 57.8887 75.9754 60.4037 77.0376C62.9187 78.0998 64.196 80.0564 64.3658 82.745C64.4055 83.4223 64.7016 83.6582 65.3356 83.6525C66.7751 83.6393 68.2148 83.6355 69.6525 83.6525C70.328 83.6525 70.6053 83.3978 70.6524 82.6978C70.8298 80.0092 72.1505 78.0602 74.6486 77.0206C77.1466 75.981 79.4597 76.4131 81.4861 78.1999C81.9974 78.6489 82.3786 78.6904 82.8635 78.1829C83.8597 77.1452 84.8772 76.1276 85.9162 75.1301C86.4105 74.6565 86.4313 74.2773 85.9633 73.7547C84.2049 71.783 83.7483 69.517 84.7049 67.053C85.6615 64.5889 87.5237 63.2285 90.1425 62.9021C91.4028 62.7493 91.4066 62.7625 91.3991 61.4984C91.3991 61.2682 91.3783 61.038 91.3651 60.7795H80.4579C79.5636 68.5152 73.4127 72.4943 68.1185 72.666C65.0865 72.766 62.3281 71.9906 59.8867 70.1945C56.7113 67.8587 54.9962 64.6701 54.5811 60.7607L43.6079 60.7815Z" fill="#011F43"/>
<path d="M38.9368 39.5492L36.1784 39.887C35.9689 39.9115 35.7577 39.9455 35.5464 39.9493C34.9803 39.9587 34.603 39.6983 34.5011 39.1153C34.4763 38.9868 34.4785 38.8545 34.5076 38.7269C34.5368 38.5993 34.5922 38.4791 34.6703 38.3741C34.7483 38.269 34.8475 38.1814 34.9613 38.1167C35.0751 38.052 35.201 38.0117 35.3313 37.9984C37.2482 37.7399 39.1651 37.4965 41.0877 37.2889C41.6801 37.2248 42.0857 37.5663 42.165 38.1757C42.4103 40.0455 42.6519 41.9153 42.8613 43.7888C42.9386 44.4775 42.5405 44.9473 41.9556 44.9831C41.4047 45.0171 40.9839 44.6265 40.8972 43.9737C40.7689 43.0001 40.6537 42.0228 40.5085 40.8323C40.1519 41.3511 39.8972 41.6983 39.667 42.0605C35.9633 47.8868 34.2897 54.2639 34.5388 61.1449C35.0595 75.5106 45.3461 88.2801 59.3099 91.697C69.7813 94.261 79.3528 92.1686 87.9469 85.6443C88.0205 85.5877 88.0922 85.5235 88.1676 85.4669C88.8167 84.9707 89.394 84.9745 89.7808 85.4669C90.1675 85.9594 90.043 86.5065 89.3789 87.0311C83.6904 91.529 77.2377 94.0818 69.9982 94.612C53.1477 95.846 37.7689 84.8443 33.6464 68.4504C31.1087 58.3601 32.8068 48.9132 38.5161 40.2002C38.6425 40.0153 38.7632 39.819 38.9368 39.5492Z" fill="#011F43"/>
<path d="M96.0796 79.9807L98.8117 79.6485C99.0211 79.6221 99.2324 79.5882 99.4437 79.5826C100.01 79.5656 100.398 79.8222 100.5 80.4014C100.527 80.53 100.527 80.6629 100.5 80.7915C100.473 80.92 100.419 81.0415 100.342 81.1481C100.265 81.2547 100.167 81.344 100.053 81.4104C99.94 81.4767 99.8139 81.5187 99.6833 81.5334C97.7689 81.7951 95.8507 82.0328 93.9288 82.2466C93.3344 82.3107 92.9213 81.9806 92.842 81.3712C92.593 79.5033 92.3533 77.6317 92.1439 75.7581C92.0647 75.06 92.4458 74.6015 93.0363 74.5563C93.6269 74.511 94.0231 74.9091 94.1137 75.6204C94.2344 76.5638 94.3514 77.5241 94.491 78.6128C94.6381 78.4582 94.7767 78.2956 94.9061 78.126C99.0815 71.8412 101 64.9188 100.378 57.4076C99.389 45.6042 93.6231 36.7365 83.3819 30.8838C76.9481 27.2065 69.9464 26.0896 62.6107 27.1763C56.7618 28.0405 51.5525 30.3555 46.9054 33.9951C46.5588 34.2511 46.134 34.3791 45.7036 34.3573C45.464 34.3384 45.0885 33.8969 45.0772 33.6309C45.0755 33.4402 45.1145 33.2513 45.1916 33.0769C45.2687 32.9025 45.3822 32.7466 45.5244 32.6196C47.1111 31.4781 48.6601 30.2442 50.3752 29.331C61.856 23.2123 73.4746 23.0463 84.812 29.4404C94.7118 35.0233 100.523 43.7269 102.132 55.0134C103.385 63.8131 101.427 71.9676 96.4721 79.3731C96.3381 79.541 96.2362 79.7222 96.0796 79.9807Z" fill="#011F43"/>
<path d="M88.4489 41.781L84.5981 38.1019L80.7473 41.7829C81.368 41.7829 81.8039 41.7716 82.2397 41.7829C82.9604 41.8075 83.3434 42.1603 83.3453 42.8772C83.3566 47.3589 83.3566 51.8399 83.3453 56.3203C83.3453 56.9882 82.9491 57.3825 82.3717 57.39C81.7378 57.39 81.3736 56.9844 81.3736 56.207C81.3736 52.3392 81.3736 48.4714 81.3736 44.6036V43.7621C80.4001 43.7621 79.487 43.7508 78.5757 43.7621C78.0398 43.7621 77.587 43.6564 77.3625 43.1131C77.1379 42.5697 77.419 42.215 77.7813 41.8716C79.7623 39.9848 81.7422 38.0981 83.7207 36.2113C84.3924 35.5717 84.8226 35.5718 85.483 36.2019C87.4641 38.0887 89.4357 39.9849 91.4225 41.8622C91.8225 42.2395 92.0376 42.6565 91.8112 43.1829C91.5847 43.7093 91.1338 43.7753 90.6262 43.7659C89.7338 43.7508 88.8414 43.7659 87.8433 43.7659V44.63C87.8433 48.4035 87.8433 52.177 87.8433 55.9505C87.8433 56.2523 87.8697 56.6429 87.7037 56.8316C87.4716 57.0957 87.0489 57.375 86.7433 57.341C86.4376 57.3071 86.1245 56.9297 85.9226 56.6316C85.7981 56.4429 85.8679 56.1278 85.8679 55.8769C85.8679 51.726 85.8679 47.5752 85.8679 43.4244C85.8679 41.981 86.0566 41.7923 87.4961 41.7923L88.4489 41.781Z" fill="#011F43"/>
<path d="M70.7433 49.1388V53.1708C70.7433 54.2331 70.7584 55.2953 70.7433 56.3556C70.7282 57.016 70.3226 57.4085 69.7433 57.4047C69.1641 57.4009 68.7791 57.0122 68.7754 56.3405C68.764 53.6525 68.764 50.9634 68.7754 48.2729C68.7754 47.5389 69.1301 47.1974 69.8546 47.1691C70.2791 47.1521 70.7017 47.1521 71.1262 47.1408C71.1413 47.1408 71.1546 47.1106 71.2225 47.0314L67.5151 43.4805L63.6548 47.1653C64.2491 47.1653 64.6585 47.1653 65.0679 47.1653C65.8924 47.1823 66.2452 47.5087 66.2471 48.3162C66.2559 50.9577 66.2559 53.5991 66.2471 56.2406C66.2471 56.9821 65.9019 57.384 65.3038 57.4028C64.7057 57.4217 64.2793 56.9915 64.2755 56.2368C64.2642 54.1614 64.2755 52.086 64.2755 50.0105V49.1446C63.319 49.1446 62.4095 49.1446 61.4982 49.1446C60.968 49.1446 60.5058 49.054 60.2832 48.5011C60.0605 47.9483 60.3605 47.5578 60.7397 47.2049C62.7032 45.3358 64.6655 43.4635 66.6264 41.5881C67.3038 40.9428 67.7226 40.9371 68.3868 41.5692C70.3678 43.456 72.347 45.3427 74.3243 47.2294C74.6865 47.5747 74.9582 47.9389 74.7582 48.4709C74.5582 49.003 74.0941 49.1445 73.5602 49.1388C72.6489 49.1313 71.7546 49.1388 70.7433 49.1388Z" fill="#011F43"/>
<path d="M67.5434 58.7751C69.4302 58.7751 71.3169 58.7751 73.2036 58.7751C74.6451 58.7751 75.3583 59.6354 75.1282 61.0618C74.5395 64.7315 71.1943 67.5371 67.4642 67.4937C63.6907 67.4504 60.4436 64.6825 59.8832 61.0486C59.6625 59.6222 60.3757 58.7845 61.8247 58.7751C63.7284 58.7713 65.6359 58.7751 67.5434 58.7751ZM61.8832 60.7883C62.3039 63.5052 64.7718 65.5523 67.5434 65.5164C70.315 65.4806 72.7413 63.441 73.1074 60.7883H61.8832Z" fill="#011F43"/>
<path d="M53.6302 54.5106C53.6302 55.1955 53.6472 55.7804 53.6302 56.3653C53.6075 57.0238 53.2133 57.4219 52.6246 57.3917C51.9982 57.3615 51.6812 56.9841 51.6624 56.386C51.6378 55.4427 51.6359 54.4993 51.6624 53.5559C51.6793 52.922 52.0303 52.5522 52.685 52.5333C53.1321 52.522 53.5793 52.5333 54.2717 52.5333L50.4039 48.8315L46.5493 52.5314C47.2002 52.5314 47.6379 52.5182 48.0756 52.5314C48.7775 52.5559 49.1191 52.8729 49.1379 53.5748C49.1625 54.4937 49.1606 55.4143 49.1379 56.3332C49.1228 57.0086 48.7435 57.3954 48.1624 57.3935C47.5813 57.3916 47.204 57.0048 47.1738 56.3332C47.1474 55.752 47.1738 55.1672 47.1738 54.5068C46.2304 54.5068 45.3625 54.4974 44.4965 54.5068C43.9512 54.5163 43.4286 54.4615 43.189 53.8879C42.9494 53.3144 43.255 52.9125 43.6607 52.5276C45.6134 50.6805 47.553 48.8183 49.4982 46.9637C50.202 46.2939 50.6133 46.2863 51.3133 46.9523C53.2956 48.8391 55.2736 50.7289 57.2471 52.6219C57.6094 52.9672 57.8679 53.3409 57.6414 53.8692C57.415 54.3974 56.9962 54.5087 56.4887 54.5049C55.5642 54.5068 54.6471 54.5106 53.6302 54.5106Z" fill="#011F43"/>
</svg>
