<svg width="134" height="119" viewBox="0 0 134 119" fill="none" xmlns="http://www.w3.org/2000/svg">
<path d="M48.6633 88.0975C48.8295 88.9266 48.9409 89.5026 49.0618 90.0748C49.2941 91.1816 49.0259 91.6312 47.9494 91.8654C45.1869 92.4685 42.4219 93.0646 39.6544 93.6539C38.8045 93.8428 38.2813 93.5009 38.1 92.6454C36.4103 84.6186 34.7244 76.5898 33.0422 68.5592C32.8779 67.7773 33.1951 67.2466 33.9657 67.0747C36.7949 66.4452 39.6279 65.8332 42.4647 65.2389C43.4203 65.0387 43.851 65.358 44.07 66.342C44.2891 67.3259 44.4988 68.3118 44.7217 69.3449C45.4979 68.9275 46.1948 68.4988 46.9351 68.1645C51.0694 66.2947 55.2189 66.3023 59.3078 68.2551C61.4552 69.2807 63.5422 70.4365 65.6254 71.5886C66.9645 72.3271 68.2261 72.3441 69.5916 71.6302C72.3189 70.1816 75.1122 68.8576 77.8205 67.375C81.0501 65.6072 84.4572 66.646 86.1476 68.9483C86.1721 68.9823 86.225 68.9974 86.3138 69.0503C88.6557 67.8547 91.0165 66.6328 93.3925 65.4353C95.5002 64.3758 97.7591 64.6384 99.474 66.1097C101.631 67.9568 101.487 70.5801 99.1322 72.1628C91.7701 77.1086 84.4044 82.0531 77.0348 86.9964C74.1451 88.9436 70.9911 89.4384 67.5915 89.0002C63.1229 88.4336 58.6448 87.8822 54.1555 87.5498C52.3783 87.4176 50.5652 87.8897 48.6633 88.0975ZM52.9166 78.2368C53.1584 78.2802 53.3623 78.3085 53.5606 78.3557C57.0924 79.1981 60.6186 80.0555 64.1542 80.8809C66.719 81.4796 69.1856 81.1717 71.4689 79.8364C75.6618 77.3811 79.8357 74.8939 84.0134 72.4121C84.9011 71.8852 85.02 71.243 84.4289 70.4044C83.2674 68.7613 81.1483 68.2513 79.2578 69.2089C76.3114 70.6972 73.3783 72.2119 70.4452 73.7266C68.5112 74.7258 66.6112 74.6936 64.6999 73.653C62.7886 72.6123 60.881 71.5925 58.9508 70.6028C54.4275 68.2816 50.0591 68.5781 45.8341 71.3979C45.3619 71.7133 45.2524 72.0136 45.3695 72.5556C46.0853 75.8495 46.7633 79.1527 47.4583 82.4522C47.7076 83.6402 47.9682 84.8263 48.2289 86.0407L49.2771 85.8197C50.9373 85.4628 52.5898 85.0397 54.3142 85.2304C58.8168 85.7309 63.3269 86.1634 67.8181 86.7414C70.9703 87.1512 73.7749 86.5526 76.3945 84.7168C79.694 82.3956 83.0842 80.2028 86.4347 77.9553C90.2737 75.3779 94.114 72.7967 97.9555 70.2118C98.8999 69.5791 98.9735 68.8633 98.2181 68.0398C97.7612 67.5372 97.1504 67.2005 96.4816 67.0822C95.8127 66.9639 95.1235 67.0709 94.522 67.3863C92.1612 68.5712 89.8123 69.778 87.4754 71.0069C87.3627 71.0744 87.265 71.1645 87.1887 71.2714C87.1123 71.3783 87.0588 71.4998 87.0315 71.6283C86.9767 72.1714 86.7925 72.6936 86.4944 73.151C86.1964 73.6084 85.7932 73.9877 85.3184 74.2573C81.0425 76.8013 76.7741 79.3567 72.4755 81.8611C69.9995 83.2946 67.2817 83.797 64.4827 83.2134C60.7054 82.4239 56.9526 81.4645 53.1904 80.5693C52.9298 80.5088 52.6729 80.422 52.4066 80.3445C52.5804 79.6174 52.741 78.9563 52.9166 78.2368ZM42.0379 67.6451L35.4672 69.0654C37.0216 76.4784 38.5646 83.8234 40.1171 91.2251L46.6916 89.8142C45.1391 82.4163 43.596 75.0695 42.0379 67.6451Z" fill="#011F43"/>
<path d="M54.5315 37.5031L39.4977 52.5445L37.915 50.9467C38.0831 50.7673 38.238 50.5916 38.4042 50.4273L53.3776 35.4501C54.303 34.5247 54.7563 34.5228 55.6836 35.4501L62.445 42.2154C62.6509 42.0265 62.8378 41.8565 63.0116 41.6789C66.9866 37.7065 70.9604 33.7328 74.9329 29.7578C75.8243 28.8663 76.2965 28.8644 77.1879 29.7578C80.0121 32.5794 82.8325 35.4023 85.6491 38.2265C85.8013 38.3982 85.9403 38.5813 86.0646 38.7742L96.8376 27.9843H94.2218V25.6934H95.1661C96.6544 25.6934 98.1426 25.6934 99.629 25.6934C100.558 25.6934 100.974 26.1088 100.978 27.0324C100.987 28.8228 100.978 30.6208 100.978 32.4472H98.7244V29.6048C98.4392 29.8673 98.2541 30.0241 98.0841 30.1941C94.5259 33.7498 90.9695 37.3061 87.415 40.8631C86.4707 41.8169 86.0269 41.8074 85.058 40.8442L76.644 32.4302C76.4551 32.2413 76.2663 32.0751 76.0529 31.8636C75.8432 32.0525 75.6524 32.2243 75.473 32.4037C71.5156 36.3611 67.5588 40.3179 63.6027 44.274C62.6735 45.2032 62.2183 45.2051 61.2967 44.2854L54.5315 37.5031Z" fill="#011F43"/>
<path d="M90.6869 46.3809C90.6919 49.1383 90.6944 51.8976 90.6944 54.6588V54.6746V54.6903V54.7061V54.7219V54.7376V54.7534V54.7692V54.785V54.8007V54.8165V54.8323V54.8481V54.8638V54.8796V54.8954V54.9112V54.9269V54.9427V54.9585V54.9742V54.99V55.0058V55.0216V55.0373V55.0531V55.0689V55.0847V55.1004V55.1162V55.132V55.1477V55.1635V55.1793V55.1951V55.2108V55.2266V55.2424V55.2582V55.2739V55.2897V55.3055V55.3213V55.337V55.3528V55.3686V55.3843V55.4001V55.4159V55.4317V55.4474V55.4632V55.479V55.4948V55.5105V55.5263V55.5421V55.5579V55.5736V55.5894V55.6052V55.6209V55.6367V55.6525V55.6683V55.684V55.6998V55.7156V55.7314V55.7471V55.7629V55.7787V55.7945V55.8102V55.826V55.8418V55.8575V55.8733V55.8891V55.9049V55.9206V55.9364V55.9522V55.968V55.9837V55.9995V56.0153V56.0311V56.0468V56.0626V56.0784V56.0941V56.1099V56.1257V56.1415V56.1572V56.173V56.1888V56.2046V56.2203V56.2361V56.2519V56.2677V56.2834V56.2992V56.315V56.3307V56.3465V56.3623V56.3781V56.3938V56.4096V56.4254V56.4412V56.4569V56.4727V56.4885V56.5042V56.52V56.5358V56.5516V56.5673V56.5831V56.5989V56.6147V56.6304V56.6462V56.662V56.6778V56.6935V56.7093V56.7251V56.7408V56.7566V56.7724V56.7882V56.8039V56.8197V56.8355V56.8513V56.867V56.8828V56.8986V56.9144V56.9301V56.9459V56.9617V56.9774V56.9932V57.009V57.0248V57.0405V57.0563V57.0721V57.0879V57.1036V57.1194V57.1352V57.1509V57.1667V57.1825V57.1983V57.214V57.2298V57.2456V57.2614V57.2771V57.2929V57.3087V57.3245V57.3402V57.356V57.3718V57.3875V57.4033V57.4191V57.4349V57.4506V57.4664V57.4822V57.498V57.5137V57.5295V57.5453V57.5611V57.5768V57.5926V57.6084V57.6241V57.6399V57.6557V57.6715V57.6872V57.703V57.7188V57.7346V57.7503V57.7661V57.7819V57.7976V57.8134V57.8292V57.845V57.8607V57.8765V57.8923V57.9081V57.9238V57.9396V57.9554V57.9712V57.9869V58.0027V58.0185V58.0342V58.05V58.0658V58.0816V58.0973V58.1131V58.1289V58.1447V58.1604V58.1762V58.192V58.2078V58.2235V58.2393V58.2551V58.2708V58.2866V58.3024V58.3182V58.3339V58.3497V58.3655V58.3813V58.397V58.4128V58.4286V58.4444V58.4601V58.4759V58.4917V58.5074V58.5232V58.539V58.5548V58.5705V58.5863V58.6021V58.6179V58.6336V58.6494V58.6652V58.6809V58.6967V58.7125V58.7283V58.744V58.7598V58.7756V58.7914V58.8071V58.8229V58.8387V58.8545V58.8702V58.886V58.9018V58.9175V58.9333V58.9491V58.9649V58.9806V58.9964V59.0122V59.028V59.0437V59.0595V59.0753V59.0911V59.1068V59.1226V59.1384V59.1541V59.1699V59.1857V59.2015V59.2172V59.233V59.2488V59.2646V59.2803V59.2961V59.3119V59.3276V59.3434V59.3592V59.375V59.3907V59.4065V59.4223V59.4381V59.4538V59.4696V59.4854V59.5012V59.5169V59.5327V59.5485V59.5642V59.58V59.5958V59.6116V59.6273V59.6431V59.6589V59.6747V59.6904V59.7062V59.722V59.7378V59.7535V59.7693V59.7851V59.8008V59.8166V59.8324V59.8482V59.8639V59.8797V59.8955V59.9113V59.927V59.9428V59.9586V59.9743V59.9901V60.0059V60.0217V60.0374V60.0532V60.069V60.0848V60.1005V60.1163V60.1321V60.1479V60.1636V60.1794V60.1952V60.2109V60.2267V60.2425V60.2583V60.274V60.2898V60.3056V60.3214V60.3371V60.3529V60.3687V60.3845V60.4002V60.416V60.4318V60.4475V60.4633V60.4791V60.4949V60.5106V60.5264V60.5422V60.558V60.5737V60.5895V60.6053V60.621V60.6368V60.6526V60.6684V60.6841V60.6999V60.7157V60.7315V60.7472V60.763V60.7788V60.7946V60.8103V60.8261V60.8419V60.8576V60.8734V60.8892V60.905V60.9207V60.9365V60.9523V60.9681V60.9838V60.9996V61.0154V61.0312V61.0469V61.0627V61.0785V61.0942V61.11V61.1258V61.1416V61.1573V61.1731V61.1889V61.2047V61.2204V61.2362V61.252V61.2677V61.2835V61.2993V61.3151V61.3308V61.3466V61.3624V61.3782V61.3939V61.4097V61.4255V61.4413V61.457V61.4728V61.4886V61.5043V61.5201V61.5359V61.5517V61.5674V61.5832V61.599V61.6148V61.6305V61.6463V61.6621V61.6779V61.6936V61.7094V61.7252V61.7409V61.7567V61.7725V61.7883V61.804V61.8198V61.8356V61.8514V61.8671V61.8829V61.8987V61.9145V61.9302V61.946V61.9618V61.9775V61.9933V62.0091V62.0249V62.0406V62.0564V62.0722V62.088V62.1037V62.1195V62.1353V62.1511V62.1668V62.1826V62.1984V62.2141V62.2299V62.2457V62.2615V62.2772V62.293V62.3088V62.3246V62.3403V62.3561V62.3719V62.3877V62.4034V62.4192V62.435V62.4507V62.4665V62.4823V62.4981V62.5138V62.5296V62.5454V62.5612V62.5769V62.5927V62.6085V62.6243V62.64V62.6558V62.6716V62.6873V62.7031V62.7189V62.7347C90.6944 63.2877 90.5998 63.628 90.3971 63.8352C90.1949 64.0421 89.8618 64.1399 89.3208 64.1456H89.3135H89.3058H89.2981H89.2903H89.2826H89.2748H89.2671H89.2593H89.2516H89.2438H89.2361H89.2283H89.2206H89.2128H89.2051H89.1974H89.1896H89.1819H89.1741H89.1664H89.1586H89.1509H89.1431H89.1354H89.1276H89.1199H89.1121H89.1044H89.0966H89.0889H89.0812H89.0734H89.0657H89.0579H89.0502H89.0424H89.0347H89.0269H89.0192H89.0114H89.0037H88.9959H88.9882H88.9805H88.9727H88.965H88.9572H88.9495H88.9417H88.934H88.9262H88.9185H88.9107H88.903H88.8952H88.8875H88.8797H88.872H88.8643H88.8565H88.8488H88.841H88.8333H88.8255H88.8178H88.81H88.8023H88.7945H88.7868H88.779H88.7713H88.7636H88.7558H88.7481H88.7403H88.7326H88.7248H88.7171H88.7093H88.7016H88.6938H88.6861H88.6783H88.6706H88.6628H88.6551H88.6474H88.6396H88.6319H88.6241H88.6164H88.6086H88.6009H88.5931H88.5854H88.5776H88.5699H88.5621H88.5544H88.5466H88.5389H88.5312H88.5234H88.5157H88.5079H88.5002H88.4924H88.4847H88.4769H88.4692H88.4614H88.4537H88.4459H88.4382H88.4305H88.4227H88.415H88.4072H88.3995H88.3917H88.384H88.3762H88.3685H88.3607H88.353H88.3452H88.3375H88.3297H88.322H88.3143H88.3065H88.2988H88.291H88.2833H88.2755H88.2678H88.26H88.2523H88.2445H88.2368H88.229H88.2213H88.2136H88.2058H88.1981H88.1903H88.1826H88.1748H88.1671H88.1593H88.1516H88.1438H88.1361H88.1283H88.1206H88.1128H88.1051H88.0974H88.0896H88.0819H88.0741H88.0664H88.0586H88.0509H88.0431H88.0354H88.0276H88.0199H88.0121H88.0044H87.9966H87.9889H87.9812H87.9734H87.9657H87.9579H87.9502H87.9424H87.9347H87.9269H87.9192H87.9114H87.9037H87.8959H87.8882H87.8805H87.8727H87.865H87.8572H87.8495H87.8417H87.834H87.8262H87.8185H87.8107H87.803H87.7952H87.7875H87.7797H87.772H87.7643H87.7565H87.7488H87.741H87.7333H87.7255H87.7178H87.71H87.7023H87.6945H87.6868H87.679H87.6713H87.6636H87.6558H87.6481H87.6403H87.6326H87.6248H87.6171H87.6093H87.6016H87.5938H87.5861H87.5783H87.5706H87.5628H87.5551H87.5474H87.5396H87.5319H87.5241H87.5164H87.5086H87.5009H87.4931H87.4854H87.4776H87.4699H87.4621H87.4544H87.4466H87.4389H87.4312H87.4234H87.4157H87.4079H87.4002H87.3924H87.3847H87.3769H87.3692H87.3614H87.3537H87.3459H87.3382H87.3305H87.3227H87.315H87.3072H87.2995H87.2917H87.284H87.2762H87.2685H87.2607H87.253H87.2452H87.2375H87.2297H87.222H87.2143H87.2065H87.1988H87.191H87.1833H87.1755H87.1678H87.16H87.1523H87.1445H87.1368H87.129H87.1213H87.1136H87.1058H87.0981H87.0903H87.0826H87.0748H87.0671H87.0593H87.0516H87.0438H87.0361H87.0283H87.0206H87.0128H87.0051H86.9974H86.9896H86.9819H86.9741H86.9664H86.9586H86.9509H86.9431H86.9354H86.9276H86.9199H86.9121H86.9044H86.8966H86.8889H86.8812H86.8734H86.8657H86.8579H86.8502H86.8424H86.8347H86.8269H86.8192H86.8114H86.8037H86.7959H86.7882H86.7805H86.7727H86.765H86.7572H86.7495H86.7417H86.734H86.7262H86.7185H86.7107H86.703H86.6952H86.6875H86.6797H86.672H86.6643H86.6565H86.6488H86.641H86.6333H86.6255H86.6178H86.61H86.6023H86.5945H86.5868H86.579H86.5713H86.5636H86.5558H86.5481H86.5403H86.5326H86.5248H86.5171H86.5093H86.5016H86.4938H86.4861H86.4783H86.4706H86.4628H86.4551H86.4474H86.4396H86.4319H86.4241H86.4164H86.4086H86.4009H86.3931H86.3854H86.3776H86.3699H86.3621H86.3544H86.3466H86.3389H86.3312H86.3234H86.3157H86.3079H86.3002H86.2924H86.2847H86.2769H86.2692H86.2614H86.2537H86.2459H86.2382H86.2305H86.2227H86.215H86.2072H86.1995H86.1917H86.184H86.1762H86.1685H86.1607H86.153H86.1452H86.1375H86.1297H86.122H86.1143H86.1065H86.0988H86.091H86.0833H86.0755H86.0678H86.06H86.0523H86.0445H86.0368H86.029H86.0213H86.0136H86.0058H85.9981H85.9903H85.9826H85.9748H85.9671H85.9593H85.9516H85.9438H85.9361H85.9283H85.9206H85.9128H85.9051H85.8974H85.8896H85.8819H85.8741H85.8664H85.8586H85.8509H85.8431H85.8354H85.8276H85.8199H85.8121H85.8044H85.7967H85.7889H85.7812H85.7734H85.7657H85.7579H85.7502H85.7424H85.7347H85.7269H85.7192H85.7114H85.7037H85.6959H85.6882H85.6805H85.6727H85.665H85.6572H85.6495H85.6417H85.634H85.6262H85.6185H85.6107H85.603H85.5952H85.5875H85.5797H85.572H85.5643H85.5565H85.5488H85.541H85.5333H85.5255H85.5178H85.51H85.5023H85.4945H85.4868H85.479H85.4713H85.4636H85.4558H85.4481H85.4403H85.4326H85.4248H85.4171H85.4093H85.4016H85.3938H85.3861H85.3783H85.3706H85.3628H85.3551C84.8999 64.1456 84.5919 64.0451 84.3962 63.8533C84.2009 63.662 84.098 63.3607 84.0971 62.914V62.8818V62.8494V62.817V62.7847V62.7523V62.7199V62.6876V62.6552V62.6228V62.5905V62.5581V62.5257V62.4934V62.461V62.4286V62.3963V62.3639V62.3315V62.2992V62.2668V62.2344V62.2021V62.1697V62.1373V62.105V62.0726V62.0402V62.0079V61.9755V61.9431V61.9108V61.8784V61.846V61.8137V61.7813V61.7489V61.7166V61.6842V61.6518V61.6195V61.5871V61.5547V61.5224V61.49V61.4576V61.4253V61.3929V61.3605V61.3282V61.2958V61.2634V61.2311V61.1987V61.1663V61.134V61.1016V61.0692V61.0369V61.0045V60.9721V60.9398V60.9074V60.875V60.8427V60.8103V60.7779V60.7456V60.7132V60.6808V60.6485V60.6161V60.5837V60.5514V60.519V60.4866V60.4543V60.4219V60.3895V60.3572V60.3248V60.2924V60.2601V60.2277V60.1953V60.1629V60.1306V60.0982V60.0658V60.0335V60.0011V59.9687V59.9364V59.904V59.8716V59.8393V59.8069V59.7745V59.7422V59.7098V59.6774V59.6451V59.6127V59.5803V59.5479V59.5156V59.4832V59.4508V59.4185V59.3861V59.3537V59.3214V59.289V59.2566V59.2243V59.1919V59.1595V59.1272V59.0948V59.0624V59.03V58.9977V58.9653V58.9329V58.9006V58.8682V58.8358V58.8035V58.7711V58.7387V58.7064V58.674V58.6416V58.6092V58.5769V58.5445V58.5121V58.4798V58.4474V58.415V58.3827V58.3503V58.3179V58.2856V58.2532V58.2208V58.1884V58.1561V58.1237V58.0913V58.059V58.0266V57.9942V57.9619V57.9295V57.8971V57.8647V57.8324V57.8V57.7676V57.7353V57.7029V57.6705V57.6382V57.6058V57.5734V57.541V57.5087V57.4763V57.4439V57.4116V57.3792V57.3468V57.3144V57.2821V57.2497V57.2173V57.185V57.1526V57.1202V57.0879V57.0555V57.0231V56.9907V56.9584V56.926V56.8936V56.8613V56.8289V56.7965V56.7641V56.7318V56.6994V56.667V56.6347V56.6023V56.5699V56.5375V56.5052V56.4728V56.4404V56.4081V56.3757V56.3433V56.3109V56.2786V56.2462V56.2138V56.1815V56.1491V56.1167V56.0843V56.052V56.0196V55.9872V55.9549V55.9225V55.8901V55.8577V55.8254V55.793V55.7606V55.7283V55.6959V55.6635V55.6311V55.5988V55.5664V55.534V55.5016V55.4693V55.4369V55.4045V55.3722V55.3398V55.3074V55.275V55.2427V55.2103V55.1779V55.1455V55.1132V55.0808V55.0484V55.0161V54.9837V54.9513V54.9189V54.8866V54.8542V54.8218V54.7894V54.7571V54.7247V54.6923V54.66V54.6276V54.5952V54.5628V54.5305V54.4981V54.4657V54.4333V54.401V54.3686V54.3362V54.3039V54.2715V54.2391V54.2067V54.1744V54.142V54.1096V54.0772V54.0449V54.0125V53.9801V53.9477V53.9154V53.883V53.8506V53.8182V53.7859V53.7535V53.7211V53.6888V53.6564V53.624V53.5916V53.5593V53.5269V53.4945V53.4621V53.4298V53.3974V53.365V53.3326V53.3003V53.2679V53.2355V53.2031V53.1708V53.1384V53.106V53.0736V53.0413V53.0089V52.9765V52.9441V52.9118V52.8794V52.847V52.8147V52.7823V52.7499V52.7175V52.6852V52.6528V52.6204V52.588V52.5557V52.5233V52.4909V52.4585V52.4262V52.3938V52.3614V52.329V52.2967V52.2643V52.2319V52.1995V52.1672V52.1348V52.1024V52.07V52.0377V52.0053V51.9729V51.9405V51.9081V51.8758V51.8434V51.811V51.7786V51.7463V51.7139V51.6815V51.6491V51.6168V51.5844V51.552V51.5196V51.4873V51.4549V51.4225V51.3901V51.3578V51.3254V51.293V51.2606V51.2283V51.1959V51.1635V51.1311V51.0988V51.0664V51.034V51.0016V50.9692V50.9369V50.9045V50.8721V50.8397V50.8074V50.775V50.7426V50.7102V50.6779V50.6455V50.6131V50.5807V50.5484V50.516V50.4836V50.4512V50.4188V50.3865V50.3541V50.3217V50.2893V50.257V50.2246V50.1922V50.1598V50.1275V50.0951V50.0627V50.0303V49.9979V49.9656V49.9332V49.9008V49.8684V49.8361V49.8037V49.7713V49.7389V49.7066V49.6742V49.6418V49.6094V49.577V49.5447V49.5123V49.4799V49.4475V49.4152V49.3828V49.3504V49.318V49.2856V49.2533V49.2209V49.1885V49.1561V49.1238V49.0914V49.059V49.0266V48.9942V48.9619V48.9295V48.8971V48.8647V48.8324V48.8V48.7676V48.7352V48.7028V48.6705V48.6381V48.6057V48.5733V48.541V48.5086V48.4762V48.4438V48.4114V48.3791V48.3467V48.3143V48.2819V48.2495V48.2172V48.1848V48.1524V48.12V48.0877V48.0553V48.0229V47.9905V47.9581V47.9258V47.8934V47.861V47.8286V47.7962V47.7639V47.7315V47.6991V47.6667V47.6343V47.602V47.5696V47.5372V47.5048V47.4725V47.4401V47.4077V47.3753V47.3429V47.3106V47.2782V47.2458V47.2134V47.181V47.1487V47.1163V47.0839V47.0515V47.0191V46.9868V46.9544V46.922V46.8896V46.8572V46.8249V46.7925V46.7601V46.7277V46.6953V46.663V46.6306V46.5982V46.5658V46.5334V46.5011V46.4687V46.4363V46.4039V46.3715V46.3392C84.0971 45.879 84.1973 45.5726 84.3874 45.379C84.5773 45.1856 84.8762 45.0849 85.32 45.0812L85.3191 44.9812L85.3198 45.0812C86.6893 45.0724 88.0581 45.0724 89.4263 45.0812L89.4263 45.0812H89.427C89.8938 45.0812 90.2007 45.1833 90.3935 45.3823C90.587 45.582 90.6859 45.9003 90.6869 46.3809ZM90.6869 46.3809L90.7869 46.3807L90.6869 46.3809ZM88.479 62.0376H88.579V61.9376V47.293V47.193H88.479H86.2975H86.1975V47.293V61.9376V62.0376H86.2975H88.479Z" fill="#011F43" stroke="#011F43" stroke-width="0.2"/>
<path d="M69.0483 47.3483H69.0476V47.3483C68.1515 47.342 67.255 47.3441 66.3582 47.3462L69.0483 47.3483ZM69.0483 47.3483C69.4992 47.3483 69.8041 47.45 69.9978 47.6435M69.0483 47.3483L69.9978 47.6435M64.9424 64.1463H64.9431H64.9424ZM64.9424 64.1463C64.4926 64.1463 64.1887 64.0442 63.9954 63.8504M64.9424 64.1463L63.9954 63.8504M63.6977 55.7335V55.7473L63.6977 55.9069L63.6977 55.7335ZM63.6977 55.7335V55.7197M63.6977 55.7335V55.7197M63.6977 55.7197V55.7058M63.6977 55.7197V55.7058M63.6977 55.7058V55.692M63.6977 55.7058V55.692M63.6977 55.692V55.6782M63.6977 55.692V55.6782M63.6977 55.6782V55.6643M63.6977 55.6782V55.6643M63.6977 55.6643V55.6505M63.6977 55.6643V55.6505M63.6977 55.6505V55.6367M63.6977 55.6505V55.6367M63.6977 55.6367V55.6228M63.6977 55.6367V55.6228M63.6977 55.6228V55.609M63.6977 55.6228V55.609M63.6977 55.609V55.5952M63.6977 55.609V55.5952M63.6977 55.5952V55.5813M63.6977 55.5952V55.5813M63.6977 55.5813V55.5675M63.6977 55.5813V55.5675M63.6977 55.5675V55.5537M63.6977 55.5675V55.5537M63.6977 55.5537V55.5398M63.6977 55.5537V55.5398M63.6977 55.5398V55.526M63.6977 55.5398V55.526M63.6977 55.526V55.5122M63.6977 55.526V55.5122M63.6977 55.5122V55.4983M63.6977 55.5122V55.4983M63.6977 55.4983V55.4845M63.6977 55.4983V55.4845M63.6977 55.4845V55.4707M63.6977 55.4845V55.4707M63.6977 55.4707V55.4568M63.6977 55.4707V55.4568M63.6977 55.4568V55.443M63.6977 55.4568V55.443M63.6977 55.443V55.4292M63.6977 55.443V55.4292M63.6977 55.4292V55.4153M63.6977 55.4292V55.4153M63.6977 55.4153V55.4015M63.6977 55.4153V55.4015M63.6977 55.4015V55.3877M63.6977 55.4015V55.3877M63.6977 55.3877V55.3738M63.6977 55.3877V55.3738M63.6977 55.3738V55.36M63.6977 55.3738V55.36M63.6977 55.36V55.3462M63.6977 55.36V55.3462M63.6977 55.3462V55.3323M63.6977 55.3462V55.3323M63.6977 55.3323V55.3185M63.6977 55.3323V55.3185M63.6977 55.3185V55.3047M63.6977 55.3185V55.3047M63.6977 55.3047V55.2908M63.6977 55.3047V55.2908M63.6977 55.2908V55.277M63.6977 55.2908V55.277M63.6977 55.277V55.2632M63.6977 55.277V55.2632M63.6977 55.2632V55.2493M63.6977 55.2632V55.2493M63.6977 55.2493V55.2355M63.6977 55.2493V55.2355M63.6977 55.2355V55.2217M63.6977 55.2355V55.2217M63.6977 55.2217V55.2078M63.6977 55.2217V55.2078M63.6977 55.2078V55.194M63.6977 55.2078V55.194M63.6977 55.194V55.1802M63.6977 55.194V55.1802M63.6977 55.1802V55.1663M63.6977 55.1802V55.1663M63.6977 55.1663V55.1525M63.6977 55.1663V55.1525M63.6977 55.1525V55.1387M63.6977 55.1525V55.1387M63.6977 55.1387V55.1248M63.6977 55.1387V55.1248M63.6977 55.1248V55.111M63.6977 55.1248V55.111M63.6977 55.111V55.0972M63.6977 55.111V55.0972M63.6977 55.0972V55.0833M63.6977 55.0972V55.0833M63.6977 55.0833V55.0695M63.6977 55.0833V55.0695M63.6977 55.0695V55.0557M63.6977 55.0695V55.0557M63.6977 55.0557V55.0418M63.6977 55.0557V55.0418M63.6977 55.0418V55.028M63.6977 55.0418V55.028M63.6977 55.028V55.0142M63.6977 55.028V55.0142M63.6977 55.0142V55.0003M63.6977 55.0142V55.0003M63.6977 55.0003V54.9865M63.6977 55.0003V54.9865M63.6977 54.9865V54.9727M63.6977 54.9865V54.9727M63.6977 54.9727V54.9588M63.6977 54.9727V54.9588M63.6977 54.9588V54.945M63.6977 54.9588V54.945M63.6977 54.945V54.9312M63.6977 54.945V54.9312M63.6977 54.9312V54.9173M63.6977 54.9312V54.9173M63.6977 54.9173V54.9035M63.6977 54.9173V54.9035M63.6977 54.9035V54.8897M63.6977 54.9035V54.8897M63.6977 54.8897V54.8758M63.6977 54.8897V54.8758M63.6977 54.8758V54.862M63.6977 54.8758V54.862M63.6977 54.862V54.8482M63.6977 54.862V54.8482M63.6977 54.8482V54.8343M63.6977 54.8482V54.8343M63.6977 54.8343V54.8205M63.6977 54.8343V54.8205M63.6977 54.8205V54.8067M63.6977 54.8205V54.8067M63.6977 54.8067V54.7928M63.6977 54.8067V54.7928M63.6977 54.7928V54.779M63.6977 54.7928V54.779M63.6977 54.779V54.7652M63.6977 54.779V54.7652M63.6977 54.7652V54.7513M63.6977 54.7652V54.7513M63.6977 54.7513V54.7375M63.6977 54.7513V54.7375M63.6977 54.7375V54.7237M63.6977 54.7375V54.7237M63.6977 54.7237V54.7098M63.6977 54.7237V54.7098M63.6977 54.7098V54.696M63.6977 54.7098V54.696M63.6977 54.696V54.6822M63.6977 54.696V54.6822M63.6977 54.6822V54.6683M63.6977 54.6822V54.6683M63.6977 54.6683V54.6545M63.6977 54.6683V54.6545M63.6977 54.6545V54.6407M63.6977 54.6545V54.6407M63.6977 54.6407V54.6268M63.6977 54.6407V54.6268M63.6977 54.6268V54.613M63.6977 54.6268V54.613M63.6977 54.613V54.5992M63.6977 54.613V54.5992M63.6977 54.5992V54.5853M63.6977 54.5992V54.5853M63.6977 54.5853V54.5715M63.6977 54.5853V54.5715M63.6977 54.5715V54.5577M63.6977 54.5715V54.5577M63.6977 54.5577V54.5438M63.6977 54.5577V54.5438M63.6977 54.5438V54.53M63.6977 54.5438V54.53M63.6977 54.53V54.5162M63.6977 54.53V54.5162M63.6977 54.5162V54.5024M63.6977 54.5162V54.5024M63.6977 54.5024V54.4885M63.6977 54.5024V54.4885M63.6977 54.4885V54.4747M63.6977 54.4885V54.4747M63.6977 54.4747V54.4609M63.6977 54.4747V54.4609M63.6977 54.4609V54.447M63.6977 54.4609V54.447M63.6977 54.447V54.4332M63.6977 54.447V54.4332M63.6977 54.4332V54.4194M63.6977 54.4332V54.4194M63.6977 54.4194V54.4055M63.6977 54.4194V54.4055M63.6977 54.4055V54.3917M63.6977 54.4055V54.3917M63.6977 54.3917V54.3779M63.6977 54.3917V54.3779M63.6977 54.3779V54.364M63.6977 54.3779V54.364M63.6977 54.364V54.3502M63.6977 54.364V54.3502M63.6977 54.3502V54.3364M63.6977 54.3502V54.3364M63.6977 54.3364V54.3225M63.6977 54.3364V54.3225M63.6977 54.3225V54.3087M63.6977 54.3225V54.3087M63.6977 54.3087V54.2949M63.6977 54.3087V54.2949M63.6977 54.2949V54.281M63.6977 54.2949V54.281M63.6977 54.281V54.2672M63.6977 54.281V54.2672M63.6977 54.2672V54.2534M63.6977 54.2672V54.2534M63.6977 54.2534V54.2395M63.6977 54.2534V54.2395M63.6977 54.2395V54.2257M63.6977 54.2395V54.2257M63.6977 54.2257V54.2119M63.6977 54.2257V54.2119M63.6977 54.2119V54.198M63.6977 54.2119V54.198M63.6977 54.198V54.1842M63.6977 54.198V54.1842M63.6977 54.1842V54.1704M63.6977 54.1842V54.1704M63.6977 54.1704V54.1565M63.6977 54.1704V54.1565M63.6977 54.1565V54.1427M63.6977 54.1565V54.1427M63.6977 54.1427V54.1288M63.6977 54.1427V54.1288M63.6977 54.1288V54.115M63.6977 54.1288V54.115M63.6977 54.115V54.1012M63.6977 54.115V54.1012M63.6977 54.1012V54.0873M63.6977 54.1012V54.0873M63.6977 54.0873V54.0735M63.6977 54.0873V54.0735M63.6977 54.0735V54.0597M63.6977 54.0735V54.0597M63.6977 54.0597V54.0458M63.6977 54.0597V54.0458M63.6977 54.0458V54.032M63.6977 54.0458V54.032M63.6977 54.032V54.0182M63.6977 54.032V54.0182M63.6977 54.0182V54.0043M63.6977 54.0182V54.0043M63.6977 54.0043V53.9905M63.6977 54.0043V53.9905M63.6977 53.9905V53.9767M63.6977 53.9905V53.9767M63.6977 53.9767V53.9628M63.6977 53.9767V53.9628M63.6977 53.9628V53.949M63.6977 53.9628V53.949M63.6977 53.949V53.9352M63.6977 53.949V53.9352M63.6977 53.9352V53.9213M63.6977 53.9352V53.9213M63.6977 53.9213V53.9075M63.6977 53.9213V53.9075M63.6977 53.9075V53.8937M63.6977 53.9075V53.8937M63.6977 53.8937V53.8798M63.6977 53.8937V53.8798M63.6977 53.8798V53.866M63.6977 53.8798V53.866M63.6977 53.866V53.8522M63.6977 53.866V53.8522M63.6977 53.8522V53.8383M63.6977 53.8522V53.8383M63.6977 53.8383V53.8245M63.6977 53.8383V53.8245M63.6977 53.8245V53.8107M63.6977 53.8245V53.8107M63.6977 53.8107V53.7968M63.6977 53.8107V53.7968M63.6977 53.7968V53.783M63.6977 53.7968V53.783M63.6977 53.783V53.7692M63.6977 53.783V53.7692M63.6977 53.7692V53.7553M63.6977 53.7692V53.7553M63.6977 53.7553V53.7415M63.6977 53.7553V53.7415M63.6977 53.7415V53.7277M63.6977 53.7415V53.7277M63.6977 53.7277V53.7138M63.6977 53.7277V53.7138M63.6977 53.7138V53.7M63.6977 53.7138V53.7M63.6977 53.7V53.6862M63.6977 53.7V53.6862M63.6977 53.6862V53.6723M63.6977 53.6862V53.6723M63.6977 53.6723V53.6585M63.6977 53.6723V53.6585M63.6977 53.6585V53.6447M63.6977 53.6585V53.6447M63.6977 53.6447V53.6308M63.6977 53.6447V53.6308M63.6977 53.6308V53.617M63.6977 53.6308V53.617M63.6977 53.617V53.6032M63.6977 53.617V53.6032M63.6977 53.6032V53.5893M63.6977 53.6032V53.5893M63.6977 53.5893V53.5755M63.6977 53.5893V53.5755M63.6977 53.5755V53.5617M63.6977 53.5755V53.5617M63.6977 53.5617V53.5478M63.6977 53.5617V53.5478M63.6977 53.5478V53.534M63.6977 53.5478V53.534M63.6977 53.534V53.5202M63.6977 53.534V53.5202M63.6977 53.5202V53.5063M63.6977 53.5202V53.5063M63.6977 53.5063V53.4925M63.6977 53.5063V53.4925M63.6977 53.4925V53.4787M63.6977 53.4925V53.4787M63.6977 53.4787V53.4648M63.6977 53.4787V53.4648M63.6977 53.4648V53.451M63.6977 53.4648V53.451M63.6977 53.451V53.4372M63.6977 53.451V53.4372M63.6977 53.4372V53.4233M63.6977 53.4372V53.4233M63.6977 53.4233V53.4095M63.6977 53.4233V53.4095M63.6977 53.4095V53.3957M63.6977 53.4095V53.3957M63.6977 53.3957V53.3818M63.6977 53.3957V53.3818M63.6977 53.3818V53.368M63.6977 53.3818V53.368M63.6977 53.368V53.3542M63.6977 53.368V53.3542M63.6977 53.3542V53.3403M63.6977 53.3542V53.3403M63.6977 53.3403V53.3265M63.6977 53.3403V53.3265M63.6977 53.3265V53.3127M63.6977 53.3265V53.3127M63.6977 53.3127V53.2988M63.6977 53.3127V53.2988M63.6977 53.2988V53.285M63.6977 53.2988V53.285M63.6977 53.285V53.2712M63.6977 53.285V53.2712M63.6977 53.2712V53.2573M63.6977 53.2712V53.2573M63.6977 53.2573V53.2435M63.6977 53.2573V53.2435M63.6977 53.2435V53.2297M63.6977 53.2435V53.2297M63.6977 53.2297V53.2158M63.6977 53.2297V53.2158M63.6977 53.2158V53.202M63.6977 53.2158V53.202M63.6977 53.202V53.1881M63.6977 53.202V53.1881M63.6977 53.1881V53.1743M63.6977 53.1881V53.1743M63.6977 53.1743V53.1605M63.6977 53.1743V53.1605M63.6977 53.1605V53.1466M63.6977 53.1605V53.1466M63.6977 53.1466V53.1328M63.6977 53.1466V53.1328M63.6977 53.1328V53.119M63.6977 53.1328V53.119M63.6977 53.119V53.1051M63.6977 53.119V53.1051M63.6977 53.1051V53.0913M63.6977 53.1051V53.0913M63.6977 53.0913V53.0775M63.6977 53.0913V53.0775M63.6977 53.0775V53.0636M63.6977 53.0775V53.0636M63.6977 53.0636V53.0498M63.6977 53.0636V53.0498M63.6977 53.0498V53.036M63.6977 53.0498V53.036M63.6977 53.036V53.0221M63.6977 53.036V53.0221M63.6977 53.0221V53.0083M63.6977 53.0221V53.0083M63.6977 53.0083V52.9945M63.6977 53.0083V52.9945M63.6977 52.9945V52.9806M63.6977 52.9945V52.9806M63.6977 52.9806V52.9668M63.6977 52.9806V52.9668M63.6977 52.9668V52.953M63.6977 52.9668V52.953M63.6977 52.953V52.9391M63.6977 52.953V52.9391M63.6977 52.9391V52.9253M63.6977 52.9391V52.9253M63.6977 52.9253V52.9115M63.6977 52.9253V52.9115M63.6977 52.9115V52.8976M63.6977 52.9115V52.8976M63.6977 52.8976V52.8838M63.6977 52.8976V52.8838M63.6977 52.8838V52.87M63.6977 52.8838V52.87M63.6977 52.87V52.8561M63.6977 52.87V52.8561M63.6977 52.8561V52.8423M63.6977 52.8561V52.8423M63.6977 52.8423V52.8284M63.6977 52.8423V52.8284M63.6977 52.8284V52.8146M63.6977 52.8284V52.8146M63.6977 52.8146V52.8008M63.6977 52.8146V52.8008M63.6977 52.8008V52.7869M63.6977 52.8008V52.7869M63.6977 52.7869V52.7731M63.6977 52.7869V52.7731M63.6977 52.7731V52.7593M63.6977 52.7731V52.7593M63.6977 52.7593V52.7454M63.6977 52.7593V52.7454M63.6977 52.7454V52.7316M63.6977 52.7454V52.7316M63.6977 52.7316V52.7178M63.6977 52.7316V52.7178M63.6977 52.7178V52.7039M63.6977 52.7178V52.7039M63.6977 52.7039V52.6901M63.6977 52.7039V52.6901M63.6977 52.6901V52.6763M63.6977 52.6901V52.6763M63.6977 52.6763V52.6624M63.6977 52.6763V52.6624M63.6977 52.6624V52.6486M63.6977 52.6624V52.6486M63.6977 52.6486V52.6348M63.6977 52.6486V52.6348M63.6977 52.6348V52.6209M63.6977 52.6348V52.6209M63.6977 52.6209V52.6071M63.6977 52.6209V52.6071M63.6977 52.6071V52.5933M63.6977 52.6071V52.5933M63.6977 52.5933V52.5794M63.6977 52.5933V52.5794M63.6977 52.5794V52.5656M63.6977 52.5794V52.5656M63.6977 52.5656V52.5518M63.6977 52.5656V52.5518M63.6977 52.5518V52.5379M63.6977 52.5518V52.5379M63.6977 52.5379V52.5241M63.6977 52.5379V52.5241M63.6977 52.5241V52.5102M63.6977 52.5241V52.5102M63.6977 52.5102V52.4964M63.6977 52.5102V52.4964M63.6977 52.4964V52.4826M63.6977 52.4964V52.4826M63.6977 52.4826V52.4687M63.6977 52.4826V52.4687M63.6977 52.4687V52.4549M63.6977 52.4687V52.4549M63.6977 52.4549V52.4411M63.6977 52.4549V52.4411M63.6977 52.4411V52.4272M63.6977 52.4411V52.4272M63.6977 52.4272V52.4134M63.6977 52.4272V52.4134M63.6977 52.4134V52.3996M63.6977 52.4134V52.3996M63.6977 52.3996V52.3857M63.6977 52.3996V52.3857M63.6977 52.3857V52.3719M63.6977 52.3857V52.3719M63.6977 52.3719V52.3581M63.6977 52.3719V52.3581M63.6977 52.3581V52.3442M63.6977 52.3581V52.3442M63.6977 52.3442V52.3304M63.6977 52.3442V52.3304M63.6977 52.3304V52.3166M63.6977 52.3304V52.3166M63.6977 52.3166V52.3027M63.6977 52.3166V52.3027M63.6977 52.3027V52.2889M63.6977 52.3027V52.2889M63.6977 52.2889V52.275M63.6977 52.2889V52.275M63.6977 52.275V52.2612M63.6977 52.275V52.2612M63.6977 52.2612V52.2474M63.6977 52.2612V52.2474M63.6977 52.2474V52.2335M63.6977 52.2474V52.2335M63.6977 52.2335V52.2197M63.6977 52.2335V52.2197M63.6977 52.2197V52.2059M63.6977 52.2197V52.2059M63.6977 52.2059V52.192M63.6977 52.2059V52.192M63.6977 52.192V52.1782M63.6977 52.192V52.1782M63.6977 52.1782V52.1644M63.6977 52.1782V52.1644M63.6977 52.1644V52.1505M63.6977 52.1644V52.1505M63.6977 52.1505V52.1367M63.6977 52.1505V52.1367M63.6977 52.1367V52.1229M63.6977 52.1367V52.1229M63.6977 52.1229V52.109M63.6977 52.1229V52.109M63.6977 52.109V52.0952M63.6977 52.109V52.0952M63.6977 52.0952V52.0813M63.6977 52.0952V52.0813M63.6977 52.0813V52.0675M63.6977 52.0813V52.0675M63.6977 52.0675V52.0537M63.6977 52.0675V52.0537M63.6977 52.0537V52.0398M63.6977 52.0537V52.0398M63.6977 52.0398V52.026M63.6977 52.0398V52.026M63.6977 52.026V52.0122M63.6977 52.026V52.0122M63.6977 52.0122V51.9983M63.6977 52.0122V51.9983M63.6977 51.9983V51.9845M63.6977 51.9983V51.9845M63.6977 51.9845V51.9707M63.6977 51.9845V51.9707M63.6977 51.9707V51.9568M63.6977 51.9707V51.9568M63.6977 51.9568V51.943M63.6977 51.9568V51.943M63.6977 51.943V51.9291M63.6977 51.943V51.9291M63.6977 51.9291V51.9153M63.6977 51.9291V51.9153M63.6977 51.9153V51.9015M63.6977 51.9153V51.9015M63.6977 51.9015V51.8876M63.6977 51.9015V51.8876M63.6977 51.8876V51.8738M63.6977 51.8876V51.8738M63.6977 51.8738V51.86M63.6977 51.8738V51.86M63.6977 51.86V51.8461M63.6977 51.86V51.8461M63.6977 51.8461V51.8323M63.6977 51.8461V51.8323M63.6977 51.8323V51.8185M63.6977 51.8323V51.8185M63.6977 51.8185V51.8046M63.6977 51.8185V51.8046M63.6977 51.8046V51.7908M63.6977 51.8046V51.7908M63.6977 51.7908V51.777M63.6977 51.7908V51.777M63.6977 51.777V51.7631M63.6977 51.777V51.7631M63.6977 51.7631V51.7493M63.6977 51.7631V51.7493M63.6977 51.7493V51.7354M63.6977 51.7493V51.7354M63.6977 51.7354V51.7216M63.6977 51.7354V51.7216M63.6977 51.7216V51.7078M63.6977 51.7216V51.7078M63.6977 51.7078V51.6939M63.6977 51.7078V51.6939M63.6977 51.6939V51.6801M63.6977 51.6939V51.6801M63.6977 51.6801V51.6663M63.6977 51.6801V51.6663M63.6977 51.6663V51.6524M63.6977 51.6663V51.6524M63.6977 51.6524V51.6386M63.6977 51.6524V51.6386M63.6977 51.6386V51.6248M63.6977 51.6386V51.6248M63.6977 51.6248V51.6109M63.6977 51.6248V51.6109M63.6977 51.6109V51.5971M63.6977 51.6109V51.5971M63.6977 51.5971V51.5832M63.6977 51.5971V51.5832M63.6977 51.5832V51.5694M63.6977 51.5832V51.5694M63.6977 51.5694V51.5556M63.6977 51.5694V51.5556M63.6977 51.5556V51.5417M63.6977 51.5556V51.5417M63.6977 51.5417V51.5279M63.6977 51.5417V51.5279M63.6977 51.5279V51.5141M63.6977 51.5279V51.5141M63.6977 51.5141V51.5002M63.6977 51.5141V51.5002M63.6977 51.5002V51.4864M63.6977 51.5002V51.4864M63.6977 51.4864V51.4725M63.6977 51.4864V51.4725M63.6977 51.4725V51.4587M63.6977 51.4725V51.4587M63.6977 51.4587V51.4449M63.6977 51.4587V51.4449M63.6977 51.4449V51.431M63.6977 51.4449V51.431M63.6977 51.431V51.4172M63.6977 51.431V51.4172M63.6977 51.4172V51.4034M63.6977 51.4172V51.4034M63.6977 51.4034V51.3895M63.6977 51.4034V51.3895M63.6977 51.3895V51.3757M63.6977 51.3895V51.3757M63.6977 51.3757V51.3619M63.6977 51.3757V51.3619M63.6977 51.3619V51.348M63.6977 51.3619V51.348M63.6977 51.348V51.3342M63.6977 51.348V51.3342M63.6977 51.3342V51.3203M63.6977 51.3342V51.3203M63.6977 51.3203V51.3065M63.6977 51.3203V51.3065M63.6977 51.3065V51.2927M63.6977 51.3065V51.2927M63.6977 51.2927V51.2788M63.6977 51.2927V51.2788M63.6977 51.2788V51.265M63.6977 51.2788V51.265M63.6977 51.265V51.2512M63.6977 51.265V51.2512M63.6977 51.2512V51.2373M63.6977 51.2512V51.2373M63.6977 51.2373V51.2235M63.6977 51.2373V51.2235M63.6977 51.2235V51.2096M63.6977 51.2235V51.2096M63.6977 51.2096V51.1958M63.6977 51.2096V51.1958M63.6977 51.1958V51.182M63.6977 51.1958V51.182M63.6977 51.182V51.1681M63.6977 51.182V51.1681M63.6977 51.1681V51.1543M63.6977 51.1681V51.1543M63.6977 51.1543V51.1405M63.6977 51.1543V51.1405M63.6977 51.1405V51.1266M63.6977 51.1405V51.1266M63.6977 51.1266V51.1128M63.6977 51.1266V51.1128M63.6977 51.1128V51.0989M63.6977 51.1128V51.0989M63.6977 51.0989V51.0851M63.6977 51.0989V51.0851M63.6977 51.0851V51.0713M63.6977 51.0851V51.0713M63.6977 51.0713V51.0574M63.6977 51.0713V51.0574M63.6977 51.0574V51.0436M63.6977 51.0574V51.0436M63.6977 51.0436V51.0298M63.6977 51.0436V51.0298M63.6977 51.0298V51.0159M63.6977 51.0298V51.0159M63.6977 51.0159V51.0021M63.6977 51.0159V51.0021M63.6977 51.0021V50.9882M63.6977 51.0021V50.9882M63.6977 50.9882V50.9744M63.6977 50.9882V50.9744M63.6977 50.9744V50.9606M63.6977 50.9744V50.9606M63.6977 50.9606V50.9467M63.6977 50.9606V50.9467M63.6977 50.9467V50.9329M63.6977 50.9467V50.9329M63.6977 50.9329V50.919M63.6977 50.9329V50.919M63.6977 50.919V50.9052M63.6977 50.919V50.9052M63.6977 50.9052V50.8914M63.6977 50.9052V50.8914M63.6977 50.8914V50.8775M63.6977 50.8914V50.8775M63.6977 50.8775V50.8637M63.6977 50.8775V50.8637M63.6977 50.8637V50.8499M63.6977 50.8637V50.8499M63.6977 50.8499V50.836M63.6977 50.8499V50.836M63.6977 50.836V50.8222M63.6977 50.836V50.8222M63.6977 50.8222V50.8083M63.6977 50.8222V50.8083M63.6977 50.8083V50.7945M63.6977 50.8083V50.7945M63.6977 50.7945V50.7807M63.6977 50.7945V50.7807M63.6977 50.7807V50.7668M63.6977 50.7807V50.7668M63.6977 50.7668V50.753M63.6977 50.7668V50.753M63.6977 50.753V50.7392M63.6977 50.753V50.7392M63.6977 50.7392V50.7253M63.6977 50.7392V50.7253M63.6977 50.7253V50.7115M63.6977 50.7253V50.7115M63.6977 50.7115V50.6976M63.6977 50.7115V50.6976M63.6977 50.6976V50.6838M63.6977 50.6976V50.6838M63.6977 50.6838V50.67M63.6977 50.6838V50.67M63.6977 50.67V50.6561M63.6977 50.67V50.6561M63.6977 50.6561V50.6423M63.6977 50.6561V50.6423M63.6977 50.6423V50.6284M63.6977 50.6423V50.6284M63.6977 50.6284V50.6146M63.6977 50.6284V50.6146M63.6977 50.6146V50.6008M63.6977 50.6146V50.6008M63.6977 50.6008V50.5869M63.6977 50.6008V50.5869M63.6977 50.5869V50.5731M63.6977 50.5869V50.5731M63.6977 50.5731V50.5592M63.6977 50.5731V50.5592M63.6977 50.5592V50.5454M63.6977 50.5592V50.5454M63.6977 50.5454V50.5316M63.6977 50.5454V50.5316M63.6977 50.5316V50.5177M63.6977 50.5316V50.5177M63.6977 50.5177V50.5039M63.6977 50.5177V50.5039M63.6977 50.5039V50.4901M63.6977 50.5039V50.4901M63.6977 50.4901V50.4762M63.6977 50.4901V50.4762M63.6977 50.4762V50.4624M63.6977 50.4762V50.4624M63.6977 50.4624V50.4485M63.6977 50.4624V50.4485M63.6977 50.4485V50.4347M63.6977 50.4485V50.4347M63.6977 50.4347V50.4209M63.6977 50.4347V50.4209M63.6977 50.4209V50.407M63.6977 50.4209V50.407M63.6977 50.407V50.3932M63.6977 50.407V50.3932M63.6977 50.3932V50.3793M63.6977 50.3932V50.3793M63.6977 50.3793V50.3655M63.6977 50.3793V50.3655M63.6977 50.3655V50.3517M63.6977 50.3655V50.3517M63.6977 50.3517V50.3378M63.6977 50.3517V50.3378M63.6977 50.3378V50.324M63.6977 50.3378V50.324M63.6977 50.324V50.3101M63.6977 50.324V50.3101M63.6977 50.3101V50.2963M63.6977 50.3101V50.2963M63.6977 50.2963V50.2825M63.6977 50.2963V50.2825M63.6977 50.2825V50.2686M63.6977 50.2825V50.2686M63.6977 50.2686V50.2548M63.6977 50.2686V50.2548M63.6977 50.2548V50.2409M63.6977 50.2548V50.2409M63.6977 50.2409V50.2271M63.6977 50.2409V50.2271M63.6977 50.2271V50.2133M63.6977 50.2271V50.2133M63.6977 50.2133V50.1994M63.6977 50.2133V50.1994M63.6977 50.1994V50.1856M63.6977 50.1994V50.1856M63.6977 50.1856V50.1717M63.6977 50.1856V50.1717M63.6977 50.1717V50.1579M63.6977 50.1717V50.1579M63.6977 50.1579V50.1441M63.6977 50.1579V50.1441M63.6977 50.1441V50.1302M63.6977 50.1441V50.1302M63.6977 50.1302V50.1164M63.6977 50.1302V50.1164M63.6977 50.1164V50.1026M63.6977 50.1164V50.1026M63.6977 50.1026V50.0887M63.6977 50.1026V50.0887M63.6977 50.0887V50.0749M63.6977 50.0887V50.0749M63.6977 50.0749V50.061M63.6977 50.0749V50.061M63.6977 50.061V50.0472M63.6977 50.061V50.0472M63.6977 50.0472V50.0334M63.6977 50.0472V50.0334M63.6977 50.0334V50.0195M63.6977 50.0334V50.0195M63.6977 50.0195V50.0057M63.6977 50.0195V50.0057M63.6977 50.0057V49.9918M63.6977 50.0057V49.9918M63.6977 49.9918V49.978M63.6977 49.9918V49.978M63.6977 49.978V49.9641M63.6977 49.978V49.9641M63.6977 49.9641V49.9503M63.6977 49.9641V49.9503M63.6977 49.9503V49.9365M63.6977 49.9503V49.9365M63.6977 49.9365V49.9226M63.6977 49.9365V49.9226M63.6977 49.9226V49.9088M63.6977 49.9226V49.9088M63.6977 49.9088V49.8949M63.6977 49.9088V49.8949M63.6977 49.8949V49.8811M63.6977 49.8949V49.8811M63.6977 49.8811V49.8673M63.6977 49.8811V49.8673M63.6977 49.8673V49.8534M63.6977 49.8673V49.8534M63.6977 49.8534V49.8396M63.6977 49.8534V49.8396M63.6977 49.8396V49.8257M63.6977 49.8396V49.8257M63.6977 49.8257V49.8119M63.6977 49.8257V49.8119M63.6977 49.8119V49.7981M63.6977 49.8119V49.7981M63.6977 49.7981V49.7842M63.6977 49.7981V49.7842M63.6977 49.7842V49.7704M63.6977 49.7842V49.7704M63.6977 49.7704V49.7565M63.6977 49.7704V49.7565M63.6977 49.7565V49.7427M63.6977 49.7565V49.7427M63.6977 49.7427V49.7289M63.6977 49.7427V49.7289M63.6977 49.7289V49.715M63.6977 49.7289V49.715M63.6977 49.715V49.7012M63.6977 49.715V49.7012M63.6977 49.7012V49.6873M63.6977 49.7012V49.6873M63.6977 49.6873V49.6735M63.6977 49.6873V49.6735M63.6977 49.6735V49.6597M63.6977 49.6735V49.6597M63.6977 49.6597V49.6458M63.6977 49.6597V49.6458M63.6977 49.6458V49.632M63.6977 49.6458V49.632M63.6977 49.632V49.6181M63.6977 49.632V49.6181M63.6977 49.6181V49.6043M63.6977 49.6181V49.6043M63.6977 49.6043V49.5904M63.6977 49.6043V49.5904M63.6977 49.5904V49.5766M63.6977 49.5904V49.5766M63.6977 49.5766V49.5628M63.6977 49.5766V49.5628M63.6977 49.5628V49.5489M63.6977 49.5628V49.5489M63.6977 49.5489V49.5351M63.6977 49.5489V49.5351M63.6977 49.5351V49.5212M63.6977 49.5351V49.5212M63.6977 49.5212V49.5074M63.6977 49.5212V49.5074M63.6977 49.5074V49.4936M63.6977 49.5074V49.4936M63.6977 49.4936V49.4797M63.6977 49.4936V49.4797M63.6977 49.4797V49.4659M63.6977 49.4797V49.4659M63.6977 49.4659V49.452M63.6977 49.4659V49.452M63.6977 49.452V49.4382M63.6977 49.452V49.4382M63.6977 49.4382V49.4243M63.6977 49.4382V49.4243M63.6977 49.4243V49.4105M63.6977 49.4243V49.4105M63.6977 49.4105V49.3967M63.6977 49.4105V49.3967M63.6977 49.3967V49.3828M63.6977 49.3967V49.3828M63.6977 49.3828V49.369M63.6977 49.3828V49.369M63.6977 49.369V49.3551M63.6977 49.369V49.3551M63.6977 49.3551V49.3413M63.6977 49.3551V49.3413M63.6977 49.3413V49.3275M63.6977 49.3413V49.3275M63.6977 49.3275V49.3136M63.6977 49.3275V49.3136M63.6977 49.3136V49.2998M63.6977 49.3136V49.2998M63.6977 49.2998V49.2859M63.6977 49.2998V49.2859M63.6977 49.2859V49.2721M63.6977 49.2859V49.2721M63.6977 49.2721V49.2582M63.6977 49.2721V49.2582M63.6977 49.2582V49.2444M63.6977 49.2582V49.2444M63.6977 49.2444V49.2306M63.6977 49.2444V49.2306M63.6977 49.2306V49.2167M63.6977 49.2306V49.2167M63.6977 49.2167V49.2029M63.6977 49.2167V49.2029M63.6977 49.2029V49.189M63.6977 49.2029V49.189M63.6977 49.189V49.1752M63.6977 49.189V49.1752M63.6977 49.1752V49.1613M63.6977 49.1752V49.1613M63.6977 49.1613V49.1475M63.6977 49.1613V49.1475M63.6977 49.1475V49.1337M63.6977 49.1475V49.1337M63.6977 49.1337V49.1198M63.6977 49.1337V49.1198M63.6977 49.1198V49.106M63.6977 49.1198V49.106M63.6977 49.106V49.0921M63.6977 49.106V49.0921M63.6977 49.0921V49.0783M63.6977 49.0921V49.0783M63.6977 49.0783V49.0645M63.6977 49.0783V49.0645M63.6977 49.0645V49.0506M63.6977 49.0645V49.0506M63.6977 49.0506V49.0368M63.6977 49.0506V49.0368M63.6977 49.0368V49.0229M63.6977 49.0368V49.0229M63.6977 49.0229V49.0091M63.6977 49.0229V49.0091M63.6977 49.0091V48.9952M63.6977 49.0091V48.9952M63.6977 48.9952V48.9814M63.6977 48.9952V48.9814M63.6977 48.9814V48.9675M63.6977 48.9814V48.9675M63.6977 48.9675V48.9537M63.6977 48.9675V48.9537M63.6977 48.9537V48.9399M63.6977 48.9537V48.9399M63.6977 48.9399V48.926M63.6977 48.9399V48.926M63.6977 48.926V48.9122M63.6977 48.926V48.9122M63.6977 48.9122V48.8983M63.6977 48.9122V48.8983M63.6977 48.8983V48.8845M63.6977 48.8983V48.8845M63.6977 48.8845V48.8706M63.6977 48.8845V48.8706M63.6977 48.8706V48.8568M63.6977 48.8706V48.8568M63.6977 48.8568V48.843M63.6977 48.8568V48.843M63.6977 48.843V48.8291M63.6977 48.843V48.8291M63.6977 48.8291V48.8153M63.6977 48.8291V48.8153M63.6977 48.8153V48.8014M63.6977 48.8153V48.8014M63.6977 48.8014V48.7876M63.6977 48.8014V48.7876M63.6977 48.7876V48.7737M63.6977 48.7876V48.7737M63.6977 48.7737V48.7599M63.6977 48.7737V48.7599M63.6977 48.7599V48.7461M63.6977 48.7599V48.7461M63.6977 48.7461V48.7322M63.6977 48.7461V48.7322M63.6977 48.7322V48.7184M63.6977 48.7322V48.7184M63.6977 48.7184V48.7045M63.6977 48.7184V48.7045M63.6977 48.7045V48.6907M63.6977 48.7045V48.6907M63.6977 48.6907V48.6768M63.6977 48.6907V48.6768M63.6977 48.6768V48.663M63.6977 48.6768V48.663M63.6977 48.663C63.6977 48.1632 63.7957 47.8439 63.9939 47.6461M63.6977 48.663L63.9939 47.6461M63.9939 47.6461C64.1921 47.4483 64.5126 47.3502 65.0125 47.3483L63.9939 47.6461ZM69.9978 47.6435C70.1914 47.8369 70.2931 48.1413 70.2931 48.5912M69.9978 47.6435L70.2931 48.5912M70.2931 48.5912V48.6191M70.2931 48.5912V48.6191M70.2931 48.6191V48.6471M70.2931 48.6191V48.6471M70.2931 48.6471V48.675M70.2931 48.6471V48.675M70.2931 48.675V48.703M70.2931 48.675V48.703M70.2931 48.703V48.7309M70.2931 48.703V48.7309M70.2931 48.7309V48.7589M70.2931 48.7309V48.7589M70.2931 48.7589V48.7868M70.2931 48.7589V48.7868M70.2931 48.7868V48.8148M70.2931 48.7868V48.8148M70.2931 48.8148V48.8427M70.2931 48.8148V48.8427M70.2931 48.8427V48.8707M70.2931 48.8427V48.8707M70.2931 48.8707V48.8986M70.2931 48.8707V48.8986M70.2931 48.8986V48.9266M70.2931 48.8986V48.9266M70.2931 48.9266V48.9545M70.2931 48.9266V48.9545M70.2931 48.9545V48.9825M70.2931 48.9545V48.9825M70.2931 48.9825V49.0105M70.2931 48.9825V49.0105M70.2931 49.0105V49.0384M70.2931 49.0105V49.0384M70.2931 49.0384V49.0664M70.2931 49.0384V49.0664M70.2931 49.0664V49.0943M70.2931 49.0664V49.0943M70.2931 49.0943V49.1223M70.2931 49.0943V49.1223M70.2931 49.1223V49.1502M70.2931 49.1223V49.1502M70.2931 49.1502V49.1782M70.2931 49.1502V49.1782M70.2931 49.1782V49.2061M70.2931 49.1782V49.2061M70.2931 49.2061V49.2341M70.2931 49.2061V49.2341M70.2931 49.2341V49.262M70.2931 49.2341V49.262M70.2931 49.262V49.29M70.2931 49.262V49.29M70.2931 49.29V49.3179M70.2931 49.29V49.3179M70.2931 49.3179V49.3459M70.2931 49.3179V49.3459M70.2931 49.3459V49.3738M70.2931 49.3459V49.3738M70.2931 49.3738V49.4018M70.2931 49.3738V49.4018M70.2931 49.4018V49.4298M70.2931 49.4018V49.4298M70.2931 49.4298V49.4577M70.2931 49.4298V49.4577M70.2931 49.4577V49.4857M70.2931 49.4577V49.4857M70.2931 49.4857V49.5136M70.2931 49.4857V49.5136M70.2931 49.5136V49.5416M70.2931 49.5136V49.5416M70.2931 49.5416V49.5695M70.2931 49.5416V49.5695M70.2931 49.5695V49.5975M70.2931 49.5695V49.5975M70.2931 49.5975V49.6254M70.2931 49.5975V49.6254M70.2931 49.6254V49.6534M70.2931 49.6254V49.6534M70.2931 49.6534V49.6813M70.2931 49.6534V49.6813M70.2931 49.6813V49.7093M70.2931 49.6813V49.7093M70.2931 49.7093V49.7372M70.2931 49.7093V49.7372M70.2931 49.7372V49.7652M70.2931 49.7372V49.7652M70.2931 49.7652V49.7931M70.2931 49.7652V49.7931M70.2931 49.7931V49.8211M70.2931 49.7931V49.8211M70.2931 49.8211V49.849M70.2931 49.8211V49.849M70.2931 49.849V49.877M70.2931 49.849V49.877M70.2931 49.877V49.9049M70.2931 49.877V49.9049M70.2931 49.9049V49.9329M70.2931 49.9049V49.9329M70.2931 49.9329V49.9609M70.2931 49.9329V49.9609M70.2931 49.9609V49.9888M70.2931 49.9609V49.9888M70.2931 49.9888V50.0168M70.2931 49.9888V50.0168M70.2931 50.0168V50.0447M70.2931 50.0168V50.0447M70.2931 50.0447V50.0727M70.2931 50.0447V50.0727M70.2931 50.0727V50.1006M70.2931 50.0727V50.1006M70.2931 50.1006V50.1286M70.2931 50.1006V50.1286M70.2931 50.1286V50.1565M70.2931 50.1286V50.1565M70.2931 50.1565V50.1845M70.2931 50.1565V50.1845M70.2931 50.1845V50.2124M70.2931 50.1845V50.2124M70.2931 50.2124V50.2404M70.2931 50.2124V50.2404M70.2931 50.2404V50.2683M70.2931 50.2404V50.2683M70.2931 50.2683V50.2963M70.2931 50.2683V50.2963M70.2931 50.2963V50.3242M70.2931 50.2963V50.3242M70.2931 50.3242V50.3522M70.2931 50.3242V50.3522M70.2931 50.3522V50.3801M70.2931 50.3522V50.3801M70.2931 50.3801V50.4081M70.2931 50.3801V50.4081M70.2931 50.4081V50.436M70.2931 50.4081V50.436M70.2931 50.436V50.464M70.2931 50.436V50.464M70.2931 50.464V50.4919M70.2931 50.464V50.4919M70.2931 50.4919V50.5199M70.2931 50.4919V50.5199M70.2931 50.5199V50.5478M70.2931 50.5199V50.5478M70.2931 50.5478V50.5758M70.2931 50.5478V50.5758M70.2931 50.5758V50.6037M70.2931 50.5758V50.6037M70.2931 50.6037V50.6317M70.2931 50.6037V50.6317M70.2931 50.6317V50.6596M70.2931 50.6317V50.6596M70.2931 50.6596V50.6876M70.2931 50.6596V50.6876M70.2931 50.6876V50.7156M70.2931 50.6876V50.7156M70.2931 50.7156V50.7435M70.2931 50.7156V50.7435M70.2931 50.7435V50.7715M70.2931 50.7435V50.7715M70.2931 50.7715V50.7994M70.2931 50.7715V50.7994M70.2931 50.7994V50.8274M70.2931 50.7994V50.8274M70.2931 50.8274V50.8553M70.2931 50.8274V50.8553M70.2931 50.8553V50.8833M70.2931 50.8553V50.8833M70.2931 50.8833V50.9112M70.2931 50.8833V50.9112M70.2931 50.9112V50.9392M70.2931 50.9112V50.9392M70.2931 50.9392V50.9671M70.2931 50.9392V50.9671M70.2931 50.9671V50.9951M70.2931 50.9671V50.9951M70.2931 50.9951V51.023M70.2931 50.9951V51.023M70.2931 51.023V51.051M70.2931 51.023V51.051M70.2931 51.051V51.0789M70.2931 51.051V51.0789M70.2931 51.0789V51.1069M70.2931 51.0789V51.1069M70.2931 51.1069V51.1348M70.2931 51.1069V51.1348M70.2931 51.1348V51.1628M70.2931 51.1348V51.1628M70.2931 51.1628V51.1907M70.2931 51.1628V51.1907M70.2931 51.1907V51.2187M70.2931 51.1907V51.2187M70.2931 51.2187V51.2466M70.2931 51.2187V51.2466M70.2931 51.2466V51.2746M70.2931 51.2466V51.2746M70.2931 51.2746V51.3025M70.2931 51.2746V51.3025M70.2931 51.3025V51.3305M70.2931 51.3025V51.3305M70.2931 51.3305V51.3584M70.2931 51.3305V51.3584M70.2931 51.3584V51.3864M70.2931 51.3584V51.3864M70.2931 51.3864V51.4143M70.2931 51.3864V51.4143M70.2931 51.4143V51.4423M70.2931 51.4143V51.4423M70.2931 51.4423V51.4702M70.2931 51.4423V51.4702M70.2931 51.4702V51.4982M70.2931 51.4702V51.4982M70.2931 51.4982V51.5261M70.2931 51.4982V51.5261M70.2931 51.5261V51.5541M70.2931 51.5261V51.5541M70.2931 51.5541V51.582M70.2931 51.5541V51.582M70.2931 51.582V51.61M70.2931 51.582V51.61M70.2931 51.61V51.6379M70.2931 51.61V51.6379M70.2931 51.6379V51.6659M70.2931 51.6379V51.6659M70.2931 51.6659V51.6938M70.2931 51.6659V51.6938M70.2931 51.6938V51.7218M70.2931 51.6938V51.7218M70.2931 51.7218V51.7497M70.2931 51.7218V51.7497M70.2931 51.7497V51.7777M70.2931 51.7497V51.7777M70.2931 51.7777V51.8056M70.2931 51.7777V51.8056M70.2931 51.8056V51.8336M70.2931 51.8056V51.8336M70.2931 51.8336V51.8615M70.2931 51.8336V51.8615M70.2931 51.8615V51.8895M70.2931 51.8615V51.8895M70.2931 51.8895V51.9174M70.2931 51.8895V51.9174M70.2931 51.9174V51.9454M70.2931 51.9174V51.9454M70.2931 51.9454V51.9733M70.2931 51.9454V51.9733M70.2931 51.9733V52.0013M70.2931 51.9733V52.0013M70.2931 52.0013V52.0292M70.2931 52.0013V52.0292M70.2931 52.0292V52.0572M70.2931 52.0292V52.0572M70.2931 52.0572V52.0851M70.2931 52.0572V52.0851M70.2931 52.0851V52.1131M70.2931 52.0851V52.1131M70.2931 52.1131V52.141M70.2931 52.1131V52.141M70.2931 52.141V52.169M70.2931 52.141V52.169M70.2931 52.169V52.1969M70.2931 52.169V52.1969M70.2931 52.1969V52.2249M70.2931 52.1969V52.2249M70.2931 52.2249V52.2528M70.2931 52.2249V52.2528M70.2931 52.2528V52.2808M70.2931 52.2528V52.2808M70.2931 52.2808V52.3087M70.2931 52.2808V52.3087M70.2931 52.3087V52.3367M70.2931 52.3087V52.3367M70.2931 52.3367V52.3646M70.2931 52.3367V52.3646M70.2931 52.3646V52.3926M70.2931 52.3646V52.3926M70.2931 52.3926V52.4205M70.2931 52.3926V52.4205M70.2931 52.4205V52.4485M70.2931 52.4205V52.4485M70.2931 52.4485V52.4764M70.2931 52.4485V52.4764M70.2931 52.4764V52.5044M70.2931 52.4764V52.5044M70.2931 52.5044V52.5323M70.2931 52.5044V52.5323M70.2931 52.5323V52.5603M70.2931 52.5323V52.5603M70.2931 52.5603V52.5882M70.2931 52.5603V52.5882M70.2931 52.5882V52.6162M70.2931 52.5882V52.6162M70.2931 52.6162V52.6441M70.2931 52.6162V52.6441M70.2931 52.6441V52.6721M70.2931 52.6441V52.6721M70.2931 52.6721V52.7M70.2931 52.6721V52.7M70.2931 52.7V52.728M70.2931 52.7V52.728M70.2931 52.728V52.7559M70.2931 52.728V52.7559M70.2931 52.7559V52.7839M70.2931 52.7559V52.7839M70.2931 52.7839V52.8118M70.2931 52.7839V52.8118M70.2931 52.8118V52.8398M70.2931 52.8118V52.8398M70.2931 52.8398V52.8677M70.2931 52.8398V52.8677M70.2931 52.8677V52.8957M70.2931 52.8677V52.8957M70.2931 52.8957V52.9236M70.2931 52.8957V52.9236M70.2931 52.9236V52.9516M70.2931 52.9236V52.9516M70.2931 52.9516V52.9795M70.2931 52.9516V52.9795M70.2931 52.9795V53.0075M70.2931 52.9795V53.0075M70.2931 53.0075V53.0354M70.2931 53.0075V53.0354M70.2931 53.0354V53.0634M70.2931 53.0354V53.0634M70.2931 53.0634V53.0913M70.2931 53.0634V53.0913M70.2931 53.0913V53.1193M70.2931 53.0913V53.1193M70.2931 53.1193V53.1472M70.2931 53.1193V53.1472M70.2931 53.1472V53.1752M70.2931 53.1472V53.1752M70.2931 53.1752V53.2031M70.2931 53.1752V53.2031M70.2931 53.2031V53.2311M70.2931 53.2031V53.2311M70.2931 53.2311V53.259M70.2931 53.2311V53.259M70.2931 53.259V53.287M70.2931 53.259V53.287M70.2931 53.287V53.3149M70.2931 53.287V53.3149M70.2931 53.3149V53.3429M70.2931 53.3149V53.3429M70.2931 53.3429V53.3708M70.2931 53.3429V53.3708M70.2931 53.3708V53.3988M70.2931 53.3708V53.3988M70.2931 53.3988V53.4267M70.2931 53.3988V53.4267M70.2931 53.4267V53.4547M70.2931 53.4267V53.4547M70.2931 53.4547V53.4826M70.2931 53.4547V53.4826M70.2931 53.4826V53.5106M70.2931 53.4826V53.5106M70.2931 53.5106V53.5385M70.2931 53.5106V53.5385M70.2931 53.5385V53.5665M70.2931 53.5385V53.5665M70.2931 53.5665V53.5944M70.2931 53.5665V53.5944M70.2931 53.5944V53.6224M70.2931 53.5944V53.6224M70.2931 53.6224V53.6503M70.2931 53.6224V53.6503M70.2931 53.6503V53.6783M70.2931 53.6503V53.6783M70.2931 53.6783V53.7062M70.2931 53.6783V53.7062M70.2931 53.7062V53.7342M70.2931 53.7062V53.7342M70.2931 53.7342V53.7621M70.2931 53.7342V53.7621M70.2931 53.7621V53.7901M70.2931 53.7621V53.7901M70.2931 53.7901V53.818M70.2931 53.7901V53.818M70.2931 53.818V53.846M70.2931 53.818V53.846M70.2931 53.846V53.8739M70.2931 53.846V53.8739M70.2931 53.8739V53.9019M70.2931 53.8739V53.9019M70.2931 53.9019V53.9298M70.2931 53.9019V53.9298M70.2931 53.9298V53.9577M70.2931 53.9298V53.9577M70.2931 53.9577V53.9857M70.2931 53.9577V53.9857M70.2931 53.9857V54.0136M70.2931 53.9857V54.0136M70.2931 54.0136V54.0416M70.2931 54.0136V54.0416M70.2931 54.0416V54.0695M70.2931 54.0416V54.0695M70.2931 54.0695V54.0975M70.2931 54.0695V54.0975M70.2931 54.0975V54.1254M70.2931 54.0975V54.1254M70.2931 54.1254V54.1534M70.2931 54.1254V54.1534M70.2931 54.1534V54.1813M70.2931 54.1534V54.1813M70.2931 54.1813V54.2093M70.2931 54.1813V54.2093M70.2931 54.2093V54.2372M70.2931 54.2093V54.2372M70.2931 54.2372V54.2652M70.2931 54.2372V54.2652M70.2931 54.2652V54.2931M70.2931 54.2652V54.2931M70.2931 54.2931V54.3211M70.2931 54.2931V54.3211M70.2931 54.3211V54.349M70.2931 54.3211V54.349M70.2931 54.349V54.377M70.2931 54.349V54.377M70.2931 54.377V54.4049M70.2931 54.377V54.4049M70.2931 54.4049V54.4329M70.2931 54.4049V54.4329M70.2931 54.4329V54.4608M70.2931 54.4329V54.4608M70.2931 54.4608V54.4888M70.2931 54.4608V54.4888M70.2931 54.4888V54.5167M70.2931 54.4888V54.5167M70.2931 54.5167V54.5447M70.2931 54.5167V54.5447M70.2931 54.5447V54.5726M70.2931 54.5447V54.5726M70.2931 54.5726V54.6006M70.2931 54.5726V54.6006M70.2931 54.6006V54.6285M70.2931 54.6006V54.6285M70.2931 54.6285V54.6564M70.2931 54.6285V54.6564M70.2931 54.6564V54.6844M70.2931 54.6564V54.6844M70.2931 54.6844V54.7123M70.2931 54.6844V54.7123M70.2931 54.7123V54.7403M70.2931 54.7123V54.7403M70.2931 54.7403V54.7682M70.2931 54.7403V54.7682M70.2931 54.7682V54.7962M70.2931 54.7682V54.7962M70.2931 54.7962V54.8241M70.2931 54.7962V54.8241M70.2931 54.8241V54.8521M70.2931 54.8241V54.8521M70.2931 54.8521V54.88M70.2931 54.8521V54.88M70.2931 54.88V54.908M70.2931 54.88V54.908M70.2931 54.908V54.9359M70.2931 54.908V54.9359M70.2931 54.9359V54.9639M70.2931 54.9359V54.9639M70.2931 54.9639V54.9918M70.2931 54.9639V54.9918M70.2931 54.9918V55.0198M70.2931 54.9918V55.0198M70.2931 55.0198V55.0477M70.2931 55.0198V55.0477M70.2931 55.0477V55.0757M70.2931 55.0477V55.0757M70.2931 55.0757V55.1036M70.2931 55.0757V55.1036M70.2931 55.1036V55.1316M70.2931 55.1036V55.1316M70.2931 55.1316V55.1595M70.2931 55.1316V55.1595M70.2931 55.1595V55.1874M70.2931 55.1595V55.1874M70.2931 55.1874V55.2154M70.2931 55.1874V55.2154M70.2931 55.2154V55.2433M70.2931 55.2154V55.2433M70.2931 55.2433V55.2713M70.2931 55.2433V55.2713M70.2931 55.2713V55.2992M70.2931 55.2713V55.2992M70.2931 55.2992V55.3272M70.2931 55.2992V55.3272M70.2931 55.3272V55.3551M70.2931 55.3272V55.3551M70.2931 55.3551V55.3831M70.2931 55.3551V55.3831M70.2931 55.3831V55.411M70.2931 55.3831V55.411M70.2931 55.411V55.439M70.2931 55.411V55.439M70.2931 55.439V55.4669M70.2931 55.439V55.4669M70.2931 55.4669V55.4949M70.2931 55.4669V55.4949M70.2931 55.4949V55.5228M70.2931 55.4949V55.5228M70.2931 55.5228V55.5508M70.2931 55.5228V55.5508M70.2931 55.5508V55.5787M70.2931 55.5508V55.5787M70.2931 55.5787V55.6066M70.2931 55.5787V55.6066M70.2931 55.6066V55.6346M70.2931 55.6066V55.6346M70.2931 55.6346V55.6625M70.2931 55.6346V55.6625M70.2931 55.6625V55.6905M70.2931 55.6625V55.6905M70.2931 55.6905V55.7184M70.2931 55.6905V55.7184M70.2931 55.7184V55.7464M70.2931 55.7184V55.7464M70.2931 55.7464V55.7743M70.2931 55.7464V55.7743M70.2931 55.7743V55.8023M70.2931 55.7743V55.8023M70.2931 55.8023V55.8302M70.2931 55.8023V55.8302M70.2931 55.8302V55.8582M70.2931 55.8302V55.8582M70.2931 55.8582V55.8861M70.2931 55.8582V55.8861M70.2931 55.8861V55.9141M70.2931 55.8861V55.9141M70.2931 55.9141V55.942M70.2931 55.9141V55.942M70.2931 55.942V55.97M70.2931 55.942V55.97M70.2931 55.97V55.9979M70.2931 55.97V55.9979M70.2931 55.9979V56.0258M70.2931 55.9979V56.0258M70.2931 56.0258V56.0538M70.2931 56.0258V56.0538M70.2931 56.0538V56.0817M70.2931 56.0538V56.0817M70.2931 56.0817V56.1097M70.2931 56.0817V56.1097M70.2931 56.1097V56.1376M70.2931 56.1097V56.1376M70.2931 56.1376V56.1656M70.2931 56.1376V56.1656M70.2931 56.1656V56.1935M70.2931 56.1656V56.1935M70.2931 56.1935V56.2215M70.2931 56.1935V56.2215M70.2931 56.2215V56.2494M70.2931 56.2215V56.2494M70.2931 56.2494V56.2774M70.2931 56.2494V56.2774M70.2931 56.2774V56.3053M70.2931 56.2774V56.3053M70.2931 56.3053V56.3333M70.2931 56.3053V56.3333M70.2931 56.3333V56.3612M70.2931 56.3333V56.3612M70.2931 56.3612V56.3891M70.2931 56.3612V56.3891M70.2931 56.3891V56.4171M70.2931 56.3891V56.4171M70.2931 56.4171V56.445M70.2931 56.4171V56.445M70.2931 56.445V56.473M70.2931 56.445V56.473M70.2931 56.473V56.5009M70.2931 56.473V56.5009M70.2931 56.5009V56.5289M70.2931 56.5009V56.5289M70.2931 56.5289V56.5568M70.2931 56.5289V56.5568M70.2931 56.5568V56.5848M70.2931 56.5568V56.5848M70.2931 56.5848V56.6127M70.2931 56.5848V56.6127M70.2931 56.6127V56.6407M70.2931 56.6127V56.6407M70.2931 56.6407V56.6686M70.2931 56.6407V56.6686M70.2931 56.6686V56.6965M70.2931 56.6686V56.6965M70.2931 56.6965V56.7245M70.2931 56.6965V56.7245M70.2931 56.7245V56.7524M70.2931 56.7245V56.7524M70.2931 56.7524V56.7804M70.2931 56.7524V56.7804M70.2931 56.7804V56.8083M70.2931 56.7804V56.8083M70.2931 56.8083V56.8363M70.2931 56.8083V56.8363M70.2931 56.8363V56.8642M70.2931 56.8363V56.8642M70.2931 56.8642V56.8922M70.2931 56.8642V56.8922M70.2931 56.8922V56.9201M70.2931 56.8922V56.9201M70.2931 56.9201V56.9481M70.2931 56.9201V56.9481M70.2931 56.9481V56.976M70.2931 56.9481V56.976M70.2931 56.976V57.0039M70.2931 56.976V57.0039M70.2931 57.0039V57.0319M70.2931 57.0039V57.0319M70.2931 57.0319V57.0598M70.2931 57.0319V57.0598M70.2931 57.0598V57.0878M70.2931 57.0598V57.0878M70.2931 57.0878V57.1157M70.2931 57.0878V57.1157M70.2931 57.1157V57.1437M70.2931 57.1157V57.1437M70.2931 57.1437V57.1716M70.2931 57.1437V57.1716M70.2931 57.1716V57.1996M70.2931 57.1716V57.1996M70.2931 57.1996V57.2275M70.2931 57.1996V57.2275M70.2931 57.2275V57.2554M70.2931 57.2275V57.2554M70.2931 57.2554V57.2834M70.2931 57.2554V57.2834M70.2931 57.2834V57.3113M70.2931 57.2834V57.3113M70.2931 57.3113V57.3393M70.2931 57.3113V57.3393M70.2931 57.3393V57.3672M70.2931 57.3393V57.3672M70.2931 57.3672V57.3952M70.2931 57.3672V57.3952M70.2931 57.3952V57.4231M70.2931 57.3952V57.4231M70.2931 57.4231V57.4511M70.2931 57.4231V57.4511M70.2931 57.4511V57.479M70.2931 57.4511V57.479M70.2931 57.479V57.507M70.2931 57.479V57.507M70.2931 57.507V57.5349M70.2931 57.507V57.5349M70.2931 57.5349V57.5628M70.2931 57.5349V57.5628M70.2931 57.5628V57.5908M70.2931 57.5628V57.5908M70.2931 57.5908V57.6187M70.2931 57.5908V57.6187M70.2931 57.6187V57.6467M70.2931 57.6187V57.6467M70.2931 57.6467V57.6746M70.2931 57.6467V57.6746M70.2931 57.6746V57.7026M70.2931 57.6746V57.7026M70.2931 57.7026V57.7305M70.2931 57.7026V57.7305M70.2931 57.7305V57.7585M70.2931 57.7305V57.7585M70.2931 57.7585V57.7864M70.2931 57.7585V57.7864M70.2931 57.7864V57.8143M70.2931 57.7864V57.8143M70.2931 57.8143V57.8423M70.2931 57.8143V57.8423M70.2931 57.8423V57.8702M70.2931 57.8423V57.8702M70.2931 57.8702V57.8982M70.2931 57.8702V57.8982M70.2931 57.8982V57.9261M70.2931 57.8982V57.9261M70.2931 57.9261V57.9541M70.2931 57.9261V57.9541M70.2931 57.9541V57.982M70.2931 57.9541V57.982M70.2931 57.982V58.0099M70.2931 57.982V58.0099M70.2931 58.0099V58.0379M70.2931 58.0099V58.0379M70.2931 58.0379V58.0658M70.2931 58.0379V58.0658M70.2931 58.0658V58.0938M70.2931 58.0658V58.0938M70.2931 58.0938V58.1217M70.2931 58.0938V58.1217M70.2931 58.1217V58.1497M70.2931 58.1217V58.1497M70.2931 58.1497V58.1776M70.2931 58.1497V58.1776M70.2931 58.1776V58.2056M70.2931 58.1776V58.2056M70.2931 58.2056V58.2335M70.2931 58.2056V58.2335M70.2931 58.2335V58.2614M70.2931 58.2335V58.2614M70.2931 58.2614V58.2894M70.2931 58.2614V58.2894M70.2931 58.2894V58.3173M70.2931 58.2894V58.3173M70.2931 58.3173V58.3453M70.2931 58.3173V58.3453M70.2931 58.3453V58.3732M70.2931 58.3453V58.3732M70.2931 58.3732V58.4012M70.2931 58.3732V58.4012M70.2931 58.4012V58.4291M70.2931 58.4012V58.4291M70.2931 58.4291V58.4571M70.2931 58.4291V58.4571M70.2931 58.4571V58.485M70.2931 58.4571V58.485M70.2931 58.485V58.5129M70.2931 58.485V58.5129M70.2931 58.5129V58.5409M70.2931 58.5129V58.5409M70.2931 58.5409V58.5688M70.2931 58.5409V58.5688M70.2931 58.5688V58.5968M70.2931 58.5688V58.5968M70.2931 58.5968V58.6247M70.2931 58.5968V58.6247M70.2931 58.6247V58.6527M70.2931 58.6247V58.6527M70.2931 58.6527V58.6806M70.2931 58.6527V58.6806M70.2931 58.6806V58.7085M70.2931 58.6806V58.7085M70.2931 58.7085V58.7365M70.2931 58.7085V58.7365M70.2931 58.7365V58.7644M70.2931 58.7365V58.7644M70.2931 58.7644V58.7924M70.2931 58.7644V58.7924M70.2931 58.7924V58.8203M70.2931 58.7924V58.8203M70.2931 58.8203V58.8483M70.2931 58.8203V58.8483M70.2931 58.8483V58.8762M70.2931 58.8483V58.8762M70.2931 58.8762V58.9041M70.2931 58.8762V58.9041M70.2931 58.9041V58.9321M70.2931 58.9041V58.9321M70.2931 58.9321V58.96M70.2931 58.9321V58.96M70.2931 58.96V58.988M70.2931 58.96V58.988M70.2931 58.988V59.0159M70.2931 58.988V59.0159M70.2931 59.0159V59.0439M70.2931 59.0159V59.0439M70.2931 59.0439V59.0718M70.2931 59.0439V59.0718M70.2931 59.0718V59.0997M70.2931 59.0718V59.0997M70.2931 59.0997V59.1277M70.2931 59.0997V59.1277M70.2931 59.1277V59.1556M70.2931 59.1277V59.1556M70.2931 59.1556V59.1836M70.2931 59.1556V59.1836M70.2931 59.1836V59.2115M70.2931 59.1836V59.2115M70.2931 59.2115V59.2395M70.2931 59.2115V59.2395M70.2931 59.2395V59.2674M70.2931 59.2395V59.2674M70.2931 59.2674V59.2953M70.2931 59.2674V59.2953M70.2931 59.2953V59.3233M70.2931 59.2953V59.3233M70.2931 59.3233V59.3512M70.2931 59.3233V59.3512M70.2931 59.3512V59.3792M70.2931 59.3512V59.3792M70.2931 59.3792V59.4071M70.2931 59.3792V59.4071M70.2931 59.4071V59.4351M70.2931 59.4071V59.4351M70.2931 59.4351V59.463M70.2931 59.4351V59.463M70.2931 59.463V59.4909M70.2931 59.463V59.4909M70.2931 59.4909V59.5189M70.2931 59.4909V59.5189M70.2931 59.5189V59.5468M70.2931 59.5189V59.5468M70.2931 59.5468V59.5748M70.2931 59.5468V59.5748M70.2931 59.5748V59.6027M70.2931 59.5748V59.6027M70.2931 59.6027V59.6307M70.2931 59.6027V59.6307M70.2931 59.6307V59.6586M70.2931 59.6307V59.6586M70.2931 59.6586V59.6865M70.2931 59.6586V59.6865M70.2931 59.6865V59.7145M70.2931 59.6865V59.7145M70.2931 59.7145V59.7424M70.2931 59.7145V59.7424M70.2931 59.7424V59.7704M70.2931 59.7424V59.7704M70.2931 59.7704V59.7983M70.2931 59.7704V59.7983M70.2931 59.7983V59.8263M70.2931 59.7983V59.8263M70.2931 59.8263V59.8542M70.2931 59.8263V59.8542M70.2931 59.8542V59.8821M70.2931 59.8542V59.8821M70.2931 59.8821V59.9101M70.2931 59.8821V59.9101M70.2931 59.9101V59.938M70.2931 59.9101V59.938M70.2931 59.938V59.966M70.2931 59.938V59.966M70.2931 59.966V59.9939M70.2931 59.966V59.9939M70.2931 59.9939V60.0218M70.2931 59.9939V60.0218M70.2931 60.0218V60.0498M70.2931 60.0218V60.0498M70.2931 60.0498V60.0777M70.2931 60.0498V60.0777M70.2931 60.0777V60.1057M70.2931 60.0777V60.1057M70.2931 60.1057V60.1336M70.2931 60.1057V60.1336M70.2931 60.1336V60.1616M70.2931 60.1336V60.1616M70.2931 60.1616V60.1895M70.2931 60.1616V60.1895M70.2931 60.1895V60.2174M70.2931 60.1895V60.2174M70.2931 60.2174V60.2454M70.2931 60.2174V60.2454M70.2931 60.2454V60.2733M70.2931 60.2454V60.2733M70.2931 60.2733V60.3013M70.2931 60.2733V60.3013M70.2931 60.3013V60.3292M70.2931 60.3013V60.3292M70.2931 60.3292V60.3572M70.2931 60.3292V60.3572M70.2931 60.3572V60.3851M70.2931 60.3572V60.3851M70.2931 60.3851V60.413M70.2931 60.3851V60.413M70.2931 60.413V60.441M70.2931 60.413V60.441M70.2931 60.441V60.4689M70.2931 60.441V60.4689M70.2931 60.4689V60.4969M70.2931 60.4689V60.4969M70.2931 60.4969V60.5248M70.2931 60.4969V60.5248M70.2931 60.5248V60.5527M70.2931 60.5248V60.5527M70.2931 60.5527V60.5807M70.2931 60.5527V60.5807M70.2931 60.5807V60.6086M70.2931 60.5807V60.6086M70.2931 60.6086V60.6366M70.2931 60.6086V60.6366M70.2931 60.6366V60.6645M70.2931 60.6366V60.6645M70.2931 60.6645V60.6924M70.2931 60.6645V60.6924M70.2931 60.6924V60.7204M70.2931 60.6924V60.7204M70.2931 60.7204V60.7483M70.2931 60.7204V60.7483M70.2931 60.7483V60.7763M70.2931 60.7483V60.7763M70.2931 60.7763V60.8042M70.2931 60.7763V60.8042M70.2931 60.8042V60.8322M70.2931 60.8042V60.8322M70.2931 60.8322V60.8601M70.2931 60.8322V60.8601M70.2931 60.8601V60.888M70.2931 60.8601V60.888M70.2931 60.888V60.916M70.2931 60.888V60.916M70.2931 60.916V60.9439M70.2931 60.916V60.9439M70.2931 60.9439V60.9719M70.2931 60.9439V60.9719M70.2931 60.9719V60.9998M70.2931 60.9719V60.9998M70.2931 60.9998V61.0277M70.2931 60.9998V61.0277M70.2931 61.0277V61.0557M70.2931 61.0277V61.0557M70.2931 61.0557V61.0836M70.2931 61.0557V61.0836M70.2931 61.0836V61.1116M70.2931 61.0836V61.1116M70.2931 61.1116V61.1395M70.2931 61.1116V61.1395M70.2931 61.1395V61.1674M70.2931 61.1395V61.1674M70.2931 61.1674V61.1954M70.2931 61.1674V61.1954M70.2931 61.1954V61.2233M70.2931 61.1954V61.2233M70.2931 61.2233V61.2513M70.2931 61.2233V61.2513M70.2931 61.2513V61.2792M70.2931 61.2513V61.2792M70.2931 61.2792V61.3072M70.2931 61.2792V61.3072M70.2931 61.3072V61.3351M70.2931 61.3072V61.3351M70.2931 61.3351V61.363M70.2931 61.3351V61.363M70.2931 61.363V61.391M70.2931 61.363V61.391M70.2931 61.391V61.4189M70.2931 61.391V61.4189M70.2931 61.4189V61.4469M70.2931 61.4189V61.4469M70.2931 61.4469V61.4748M70.2931 61.4469V61.4748M70.2931 61.4748V61.5027M70.2931 61.4748V61.5027M70.2931 61.5027V61.5307M70.2931 61.5027V61.5307M70.2931 61.5307V61.5586M70.2931 61.5307V61.5586M70.2931 61.5586V61.5866M70.2931 61.5586V61.5866M70.2931 61.5866V61.6145M70.2931 61.5866V61.6145M70.2931 61.6145V61.6424M70.2931 61.6145V61.6424M70.2931 61.6424V61.6704M70.2931 61.6424V61.6704M70.2931 61.6704V61.6983M70.2931 61.6704V61.6983M70.2931 61.6983V61.7263M70.2931 61.6983V61.7263M70.2931 61.7263V61.7542M70.2931 61.7263V61.7542M70.2931 61.7542V61.7821M70.2931 61.7542V61.7821M70.2931 61.7821V61.8101M70.2931 61.7821V61.8101M70.2931 61.8101V61.838M70.2931 61.8101V61.838M70.2931 61.838V61.866M70.2931 61.838V61.866M70.2931 61.866V61.8939M70.2931 61.866V61.8939M70.2931 61.8939V61.9218M70.2931 61.8939V61.9218M70.2931 61.9218V61.9498M70.2931 61.9218V61.9498M70.2931 61.9498V61.9777M70.2931 61.9498V61.9777M70.2931 61.9777V62.0057M70.2931 61.9777V62.0057M70.2931 62.0057V62.0336M70.2931 62.0057V62.0336M70.2931 62.0336V62.0615M70.2931 62.0336V62.0615M70.2931 62.0615V62.0895M70.2931 62.0615V62.0895M70.2931 62.0895V62.1174M70.2931 62.0895V62.1174M70.2931 62.1174V62.1454M70.2931 62.1174V62.1454M70.2931 62.1454V62.1733M70.2931 62.1454V62.1733M70.2931 62.1733V62.2012M70.2931 62.1733V62.2012M70.2931 62.2012V62.2292M70.2931 62.2012V62.2292M70.2931 62.2292V62.2571M70.2931 62.2292V62.2571M70.2931 62.2571V62.2851M70.2931 62.2571V62.2851M70.2931 62.2851V62.313M70.2931 62.2851V62.313M70.2931 62.313V62.3409M70.2931 62.313V62.3409M70.2931 62.3409V62.3689M70.2931 62.3409V62.3689M70.2931 62.3689V62.3968M70.2931 62.3689V62.3968M70.2931 62.3968V62.4248M70.2931 62.3968V62.4248M70.2931 62.4248V62.4527M70.2931 62.4248V62.4527M70.2931 62.4527V62.4806M70.2931 62.4527V62.4806M70.2931 62.4806V62.5086M70.2931 62.4806V62.5086M70.2931 62.5086V62.5365M70.2931 62.5086V62.5365M70.2931 62.5365V62.5644M70.2931 62.5365V62.5644M70.2931 62.5644V62.5924M70.2931 62.5644V62.5924M70.2931 62.5924V62.6203M70.2931 62.5924V62.6203M70.2931 62.6203V62.6483M70.2931 62.6203V62.6483M70.2931 62.6483V62.6762M70.2931 62.6483V62.6762M70.2931 62.6762V62.7041M70.2931 62.6762V62.7041M70.2931 62.7041V62.7321M70.2931 62.7041V62.7321M70.2931 62.7321V62.76M70.2931 62.7321V62.76M70.2931 62.76V62.788M70.2931 62.76V62.788M70.2931 62.788V62.8159M70.2931 62.788V62.8159M70.2931 62.8159V62.8438M70.2931 62.8159V62.8438M70.2931 62.8438V62.8718M70.2931 62.8438V62.8718M70.2931 62.8718V62.8997M70.2931 62.8718V62.8997M70.2931 62.8997C70.2931 63.3494 70.191 63.653 69.9973 63.8465M70.2931 62.8997L69.9973 63.8465M69.9973 63.8465C69.8035 64.0401 69.4987 64.1426 69.0496 64.1463L69.9973 63.8465ZM63.9954 63.8504C63.8021 63.6564 63.7004 63.3514 63.6995 62.9014L63.9954 63.8504ZM68.2191 49.5733V49.4733H68.1191H65.9131H65.8131V49.5733V61.9251V62.0251H65.9131H68.1191H68.2191V61.9251V49.5733Z" fill="#011F43" stroke="#011F43" stroke-width="0.2"/>
<path d="M75.1403 64.1469H75.1397C74.6899 64.1469 74.3864 64.0448 74.1935 63.851C74.0003 63.6571 73.8986 63.352 73.8968 62.9019C73.8949 61.1184 73.8949 59.3403 73.8949 57.5711L73.8949 57.4496V57.4391V57.4286V57.418V57.4075V57.397V57.3865V57.376V57.3655V57.355V57.3445V57.3339V57.3234V57.3129V57.3024V57.2919V57.2814V57.2709V57.2603V57.2498V57.2393V57.2288V57.2183V57.2078V57.1973V57.1868V57.1762V57.1657V57.1552V57.1447V57.1342V57.1237V57.1132V57.1027V57.0921V57.0816V57.0711V57.0606V57.0501V57.0396V57.0291V57.0185V57.008V56.9975V56.987V56.9765V56.966V56.9555V56.945V56.9344V56.9239V56.9134V56.9029V56.8924V56.8819V56.8714V56.8608V56.8503V56.8398V56.8293V56.8188V56.8083V56.7978V56.7873V56.7767V56.7662V56.7557V56.7452V56.7347V56.7242V56.7137V56.7032V56.6926V56.6821V56.6716V56.6611V56.6506V56.6401V56.6296V56.619V56.6085V56.598V56.5875V56.577V56.5665V56.556V56.5455V56.5349V56.5244V56.5139V56.5034V56.4929V56.4824V56.4719V56.4614V56.4508V56.4403V56.4298V56.4193V56.4088V56.3983V56.3878V56.3772V56.3667V56.3562V56.3457V56.3352V56.3247V56.3142V56.3037V56.2931V56.2826V56.2721V56.2616V56.2511V56.2406V56.2301V56.2196V56.209V56.1985V56.188V56.1775V56.167V56.1565V56.146V56.1354V56.1249V56.1144V56.1039V56.0934V56.0829V56.0724V56.0619V56.0513V56.0408V56.0303V56.0198V56.0093V55.9988V55.9883V55.9778V55.9672V55.9567V55.9462V55.9357V55.9252V55.9147V55.9042V55.8936V55.8831V55.8726V55.8621V55.8516V55.8411V55.8306V55.8201V55.8095V55.799V55.7885V55.778V55.7675V55.757V55.7465V55.736V55.7254V55.7149V55.7044V55.6939V55.6834V55.6729V55.6624V55.6518V55.6413V55.6308V55.6203V55.6098V55.5993V55.5888V55.5783V55.5677V55.5572V55.5467V55.5362V55.5257V55.5152V55.5047V55.4942V55.4836V55.4731V55.4626V55.4521V55.4416V55.4311V55.4206V55.41V55.3995V55.389V55.3785V55.368V55.3575V55.347V55.3365V55.3259V55.3154V55.3049V55.2944V55.2839V55.2734V55.2629V55.2523V55.2418V55.2313V55.2208V55.2103V55.1998V55.1893V55.1788V55.1682V55.1577V55.1472V55.1367V55.1262V55.1157V55.1052V55.0947V55.0841V55.0736V55.0631V55.0526V55.0421V55.0316V55.0211V55.0105V55V54.9895V54.979V54.9685V54.958V54.9475V54.937V54.9264V54.9159V54.9054V54.8949V54.8844V54.8739V54.8634V54.8529V54.8423V54.8318V54.8213V54.8108V54.8003V54.7898V54.7793V54.7687V54.7582V54.7477V54.7372V54.7267V54.7162V54.7057V54.6952V54.6846V54.6741V54.6636V54.6531V54.6426V54.6321V54.6216V54.6111V54.6005V54.59V54.5795V54.569V54.5585V54.548V54.5375V54.5269V54.5164V54.5059V54.4954V54.4849V54.4744V54.4639V54.4534V54.4428V54.4323V54.4218V54.4113V54.4008V54.3903V54.3798V54.3693V54.3587V54.3482V54.3377V54.3272V54.3167V54.3062V54.2957V54.2851V54.2746V54.2641V54.2536V54.2431V54.2326V54.2221V54.2116V54.201V54.1905V54.18V54.1695V54.159V54.1485V54.138V54.1275V54.1169V54.1064V54.0959V54.0854V54.0749V54.0644V54.0539V54.0433V54.0328V54.0223V54.0118V54.0013V53.9908V53.9803V53.9698V53.9592V53.9487V53.9382V53.9277V53.9172V53.9067V53.8962V53.8857V53.8751V53.8646V53.8541V53.8436V53.8331V53.8226V53.8121V53.8015V53.791V53.7805V53.77V53.7595V53.749V53.7385V53.728V53.7174V53.7069V53.6964V53.6859V53.6754V53.6649V53.6544V53.6438V53.6333V53.6228V53.6123V53.6018V53.5913V53.5808V53.5703V53.5597V53.5492V53.5387V53.5282V53.5177V53.5072V53.4967V53.4862V53.4756V53.4651V53.4546V53.4441V53.4336V53.4231V53.4126V53.402V53.3915V53.381V53.3705V53.36V53.3495V53.339V53.3285V53.3179V53.3074V53.2969V53.2864V53.2759V53.2654V53.2549V53.2444V53.2338V53.2233V53.2128V53.2023V53.1918V53.1813V53.1708V53.1602V53.1497V53.1392V53.1287V53.1182V53.1077V53.0972V53.0867V53.0761V53.0656V53.0551V53.0446V53.0341V53.0236V53.0131V53.0026V52.992V52.9815V52.971V52.9605V52.95V52.9395V52.929V52.9184V52.9079V52.8974V52.8869V52.8764V52.8659V52.8554V52.8449V52.8343V52.8238V52.8133V52.8028V52.7923V52.7818V52.7713V52.7608V52.7502V52.7397V52.7292V52.7187V52.7082V52.6977V52.6872V52.6766V52.6661V52.6556V52.6451V52.6346V52.6241V52.6136V52.6031V52.5925V52.582V52.5715V52.561V52.5505V52.54V52.5295V52.519V52.5084V52.4979V52.4874V52.4769V52.4664V52.4559V52.4454V52.4348V52.4243V52.4138V52.4033V52.3928V52.3823V52.3718V52.3613V52.3507V52.3402V52.3297V52.3192V52.3087V52.2982V52.2877V52.2772V52.2666V52.2561V52.2456V52.2351V52.2246V52.2141V52.2036V52.193V52.1825V52.172V52.1615V52.151V52.1405V52.13V52.1195V52.1089V52.0984V52.0879V52.0774V52.0669C73.8949 51.5662 73.993 51.2468 74.1909 51.0491C74.389 50.8512 74.7089 50.7532 75.2079 50.7504H75.2155H75.2234H75.2313H75.2392H75.2471H75.255H75.2629H75.2708H75.2787H75.2865H75.2944H75.3023H75.3102H75.3181H75.326H75.3339H75.3418H75.3497H75.3575H75.3654H75.3733H75.3812H75.3891H75.397H75.4049H75.4128H75.4207H75.4286H75.4364H75.4443H75.4522H75.4601H75.468H75.4759H75.4838H75.4917H75.4996H75.5074H75.5153H75.5232H75.5311H75.539H75.5469H75.5548H75.5627H75.5706H75.5784H75.5863H75.5942H75.6021H75.61H75.6179H75.6258H75.6337H75.6415H75.6494H75.6573H75.6652H75.6731H75.681H75.6889H75.6968H75.7047H75.7125H75.7204H75.7283H75.7362H75.7441H75.752H75.7599H75.7678H75.7756H75.7835H75.7914H75.7993H75.8072H75.8151H75.823H75.8309H75.8387H75.8466H75.8545H75.8624H75.8703H75.8782H75.8861H75.894H75.9018H75.9097H75.9176H75.9255H75.9334H75.9413H75.9492H75.957H75.9649H75.9728H75.9807H75.9886H75.9965H76.0044H76.0123H76.0201H76.028H76.0359H76.0438H76.0517H76.0596H76.0675H76.0753H76.0832H76.0911H76.099H76.1069H76.1148H76.1227H76.1306H76.1384H76.1463H76.1542H76.1621H76.17H76.1779H76.1858H76.1936H76.2015H76.2094H76.2173H76.2252H76.2331H76.241H76.2488H76.2567H76.2646H76.2725H76.2804H76.2883H76.2962H76.3041H76.3119H76.3198H76.3277H76.3356H76.3435H76.3514H76.3593H76.3671H76.375H76.3829H76.3908H76.3987H76.4066H76.4145H76.4223H76.4302H76.4381H76.446H76.4539H76.4618H76.4697H76.4775H76.4854H76.4933H76.5012H76.5091H76.517H76.5248H76.5327H76.5406H76.5485H76.5564H76.5643H76.5722H76.58H76.5879H76.5958H76.6037H76.6116H76.6195H76.6274H76.6352H76.6431H76.651H76.6589H76.6668H76.6747H76.6826H76.6904H76.6983H76.7062H76.7141H76.722H76.7299H76.7377H76.7456H76.7535H76.7614H76.7693H76.7772H76.7851H76.7929H76.8008H76.8087H76.8166H76.8245H76.8324H76.8403H76.8481H76.856H76.8639H76.8718H76.8797H76.8876H76.8954H76.9033H76.9112H76.9191H76.927H76.9349H76.9428H76.9506H76.9585H76.9664H76.9743H76.9822H76.9901H76.998H77.0058H77.0137H77.0216H77.0295H77.0374H77.0453H77.0531H77.061H77.0689H77.0768H77.0847H77.0926H77.1005H77.1083H77.1162H77.1241H77.132H77.1399H77.1478H77.1556H77.1635H77.1714H77.1793H77.1872H77.1951H77.203H77.2108H77.2187H77.2266H77.2345H77.2424H77.2503H77.2581H77.266H77.2739H77.2818H77.2897H77.2976H77.3055H77.3133H77.3212H77.3291H77.337H77.3449H77.3528H77.3607H77.3685H77.3764H77.3843H77.3922H77.4001H77.408H77.4158H77.4237H77.4316H77.4395H77.4474H77.4553H77.4632H77.471H77.4789H77.4868H77.4947H77.5026H77.5105H77.5183H77.5262H77.5341H77.542H77.5499H77.5578H77.5657H77.5735H77.5814H77.5893H77.5972H77.6051H77.613H77.6209H77.6287H77.6366H77.6445H77.6524H77.6603H77.6682H77.676H77.6839H77.6918H77.6997H77.7076H77.7155H77.7234H77.7312H77.7391H77.747H77.7549H77.7628H77.7707H77.7786H77.7864H77.7943H77.8022H77.8101H77.818H77.8259H77.8337H77.8416H77.8495H77.8574H77.8653H77.8732H77.8811H77.8889H77.8968H77.9047H77.9126H77.9205H77.9284H77.9363H77.9441H77.952H77.9599H77.9678H77.9757H77.9836H77.9915H77.9993H78.0072H78.0151H78.023H78.0309H78.0388H78.0467H78.0545H78.0624H78.0703H78.0782H78.0861H78.094H78.1019H78.1097H78.1176H78.1255H78.1334H78.1413H78.1492H78.1571H78.1649H78.1728H78.1807H78.1886H78.1965H78.2044H78.2123H78.2201H78.228H78.2359H78.2438H78.2517H78.2596H78.2675H78.2753H78.2832H78.2911H78.299H78.3069H78.3148H78.3227H78.3306H78.3384H78.3463H78.3542H78.3621H78.37H78.3779H78.3858H78.3936H78.4015H78.4094H78.4173H78.4252H78.4331H78.441H78.4489H78.4567H78.4646H78.4725H78.4804H78.4883H78.4962H78.5041H78.5119H78.5198H78.5277H78.5356H78.5435H78.5514H78.5593H78.5672H78.575H78.5829H78.5908H78.5987H78.6066H78.6145H78.6224H78.6303H78.6381H78.646H78.6539H78.6618H78.6697H78.6776H78.6855H78.6934H78.7012H78.7091H78.717H78.7249H78.7328H78.7407H78.7486H78.7565H78.7643H78.7722H78.7801H78.788H78.7959H78.8038H78.8117H78.8196H78.8275H78.8353H78.8432H78.8511H78.859H78.8669H78.8748H78.8827H78.8906H78.8984H78.9063H78.9142H78.9221H78.93H78.9379H78.9458H78.9537H78.9616H78.9694H78.9773H78.9852H78.9931H79.001H79.0089H79.0168H79.0247H79.0326H79.0404H79.0483H79.0562H79.0641H79.072H79.0799H79.0878H79.0957H79.1036H79.1115H79.1193H79.1272H79.1351H79.143H79.1509H79.1588H79.1667H79.1746H79.1825H79.1904H79.1982H79.2061H79.214H79.2219H79.2298H79.2377H79.2456C79.6955 50.7504 80 50.8521 80.1937 51.0453C80.3873 51.2386 80.4894 51.5426 80.4903 51.9916V52.0127V52.034V52.0553V52.0766V52.0979V52.1192V52.1406V52.1619V52.1832V52.2045V52.2258V52.2471V52.2684V52.2898V52.3111V52.3324V52.3537V52.375V52.3963V52.4176V52.4389V52.4603V52.4816V52.5029V52.5242V52.5455V52.5668V52.5881V52.6095V52.6308V52.6521V52.6734V52.6947V52.716V52.7373V52.7586V52.78V52.8013V52.8226V52.8439V52.8652V52.8865V52.9078V52.9291V52.9505V52.9718V52.9931V53.0144V53.0357V53.057V53.0783V53.0996V53.121V53.1423V53.1636V53.1849V53.2062V53.2275V53.2488V53.2701V53.2915V53.3128V53.3341V53.3554V53.3767V53.398V53.4193V53.4406V53.4619V53.4833V53.5046V53.5259V53.5472V53.5685V53.5898V53.6111V53.6324V53.6538V53.6751V53.6964V53.7177V53.739V53.7603V53.7816V53.8029V53.8242V53.8456V53.8669V53.8882V53.9095V53.9308V53.9521V53.9734V53.9947V54.016V54.0374V54.0587V54.08V54.1013V54.1226V54.1439V54.1652V54.1865V54.2078V54.2292V54.2505V54.2718V54.2931V54.3144V54.3357V54.357V54.3783V54.3996V54.4209V54.4423V54.4636V54.4849V54.5062V54.5275V54.5488V54.5701V54.5914V54.6127V54.6341V54.6554V54.6767V54.698V54.7193V54.7406V54.7619V54.7832V54.8045V54.8258V54.8472V54.8685V54.8898V54.9111V54.9324V54.9537V54.975V54.9963V55.0176V55.0389V55.0603V55.0816V55.1029V55.1242V55.1455V55.1668V55.1881V55.2094V55.2307V55.252V55.2733V55.2947V55.316V55.3373V55.3586V55.3799V55.4012V55.4225V55.4438V55.4651V55.4864V55.5077V55.5291V55.5504V55.5717V55.593V55.6143V55.6356V55.6569V55.6782V55.6995V55.7208V55.7421V55.7635V55.7848V55.8061V55.8274V55.8487V55.87V55.8913V55.9126V55.9339V55.9552V55.9765V55.9978V56.0192V56.0405V56.0618V56.0831V56.1044V56.1257V56.147V56.1683V56.1896V56.2109V56.2322V56.2535V56.2749V56.2962V56.3175V56.3388V56.3601V56.3814V56.4027V56.424V56.4453V56.4666V56.4879V56.5092V56.5305V56.5519V56.5732V56.5945V56.6158V56.6371V56.6584V56.6797V56.701V56.7223V56.7436V56.7649V56.7862V56.8075V56.8288V56.8502V56.8715V56.8928V56.9141V56.9354V56.9567V56.978V56.9993V57.0206V57.0419V57.0632V57.0845V57.1058V57.1271V57.1485V57.1698V57.1911V57.2124V57.2337V57.255V57.2763V57.2976V57.3189V57.3402V57.3615V57.3828V57.4041V57.4254V57.4467V57.4681V57.4894V57.5107V57.532V57.5533V57.5746V57.5959V57.6172V57.6385V57.6598V57.6811V57.7024V57.7237V57.745V57.7663V57.7876V57.8089V57.8303V57.8516V57.8729V57.8942V57.9155V57.9368V57.9581V57.9794V58.0007V58.022V58.0433V58.0646V58.0859V58.1072V58.1285V58.1498V58.1711V58.1925V58.2138V58.2351V58.2564V58.2777V58.299V58.3203V58.3416V58.3629V58.3842V58.4055V58.4268V58.4481V58.4694V58.4907V58.512V58.5333V58.5546V58.5759V58.5972V58.6186V58.6399V58.6612V58.6825V58.7038V58.7251V58.7464V58.7677V58.789V58.8103V58.8316V58.8529V58.8742V58.8955V58.9168V58.9381V58.9594V58.9807V59.002V59.0233V59.0446V59.0659V59.0872V59.1086V59.1299V59.1512V59.1725V59.1938V59.2151V59.2364V59.2577V59.279V59.3003V59.3216V59.3429V59.3642V59.3855V59.4068V59.4281V59.4494V59.4707V59.492V59.5133V59.5346V59.5559V59.5772V59.5985V59.6198V59.6411V59.6625V59.6838V59.7051V59.7264V59.7477V59.769V59.7903V59.8116V59.8329V59.8542V59.8755V59.8968V59.9181V59.9394V59.9607V59.982V60.0033V60.0246V60.0459V60.0672V60.0885V60.1098V60.1311V60.1524V60.1737V60.195V60.2163V60.2376V60.2589V60.2802V60.3015V60.3228V60.3441V60.3654V60.3868V60.4081V60.4294V60.4507V60.472V60.4933V60.5146V60.5359V60.5572V60.5785V60.5998V60.6211V60.6424V60.6637V60.685V60.7063V60.7276V60.7489V60.7702V60.7915V60.8128V60.8341V60.8554V60.8767V60.898V60.9193V60.9406V60.9619V60.9832V61.0045V61.0258V61.0471V61.0684V61.0897V61.111V61.1323V61.1536V61.1749V61.1962V61.2175V61.2388V61.2601V61.2814V61.3027V61.324V61.3453V61.3666V61.3879V61.4092V61.4305V61.4518V61.4731V61.4944V61.5157V61.537V61.5583V61.5796V61.6009V61.6222V61.6435V61.6648V61.6861V61.7074V61.7287V61.75V61.7713V61.7926V61.8139V61.8352V61.8566V61.8779V61.8992V61.9205V61.9418V61.9631V61.9844V62.0057V62.027V62.0483V62.0696V62.0909V62.1122V62.1335V62.1548V62.1761V62.1974V62.2187V62.24V62.2613V62.2826V62.3039V62.3252V62.3465V62.3678V62.3891V62.4104V62.4317V62.453V62.4743V62.4956V62.5169V62.5382V62.5595V62.5808V62.6021V62.6234V62.6446V62.6659V62.6872V62.7085V62.7298V62.7511V62.7724V62.7937V62.815V62.8363V62.8576V62.8789V62.9002C80.4903 63.35 80.3883 63.6535 80.1946 63.847C80.0007 64.0407 79.6959 64.1433 79.2467 64.1469C77.8785 64.1557 76.5097 64.1557 75.1403 64.1469ZM78.2787 62.0521H78.3787V61.9521V52.9734V52.8734H78.2787H76.0972H75.9972V52.9734V61.9521V62.0521H76.0972H78.2787Z" fill="#011F43" stroke="#011F43" stroke-width="0.2"/>
<path d="M54.745 64.1383H54.7456C56.115 64.1471 57.4838 64.1471 58.852 64.1383C59.3012 64.1347 59.6041 64.0326 59.7973 63.8394C59.9904 63.6463 60.0929 63.3431 60.0976 62.8931V62.8875V62.8814V62.8753V62.8692V62.8631V62.8571V62.851V62.8449V62.8388V62.8327V62.8266V62.8205V62.8144V62.8084V62.8023V62.7962V62.7901V62.784V62.7779V62.7718V62.7658V62.7597V62.7536V62.7475V62.7414V62.7353V62.7292V62.7232V62.7171V62.711V62.7049V62.6988V62.6927V62.6866V62.6805V62.6745V62.6684V62.6623V62.6562V62.6501V62.644V62.6379V62.6319V62.6258V62.6197V62.6136V62.6075V62.6014V62.5953V62.5892V62.5832V62.5771V62.571V62.5649V62.5588V62.5527V62.5466V62.5406V62.5345V62.5284V62.5223V62.5162V62.5101V62.504V62.498V62.4919V62.4858V62.4797V62.4736V62.4675V62.4614V62.4553V62.4493V62.4432V62.4371V62.431V62.4249V62.4188V62.4127V62.4067V62.4006V62.3945V62.3884V62.3823V62.3762V62.3701V62.364V62.358V62.3519V62.3458V62.3397V62.3336V62.3275V62.3214V62.3154V62.3093V62.3032V62.2971V62.291V62.2849V62.2788V62.2727V62.2667V62.2606V62.2545V62.2484V62.2423V62.2362V62.2301V62.2241V62.218V62.2119V62.2058V62.1997V62.1936V62.1875V62.1815V62.1754V62.1693V62.1632V62.1571V62.151V62.1449V62.1388V62.1328V62.1267V62.1206V62.1145V62.1084V62.1023V62.0962V62.0902V62.0841V62.078V62.0719V62.0658V62.0597V62.0536V62.0475V62.0415V62.0354V62.0293V62.0232V62.0171V62.011V62.0049V61.9989V61.9928V61.9867V61.9806V61.9745V61.9684V61.9623V61.9563V61.9502V61.9441V61.938V61.9319V61.9258V61.9197V61.9136V61.9076V61.9015V61.8954V61.8893V61.8832V61.8771V61.871V61.865V61.8589V61.8528V61.8467V61.8406V61.8345V61.8284V61.8223V61.8163V61.8102V61.8041V61.798V61.7919V61.7858V61.7797V61.7737V61.7676V61.7615V61.7554V61.7493V61.7432V61.7371V61.731V61.725V61.7189V61.7128V61.7067V61.7006V61.6945V61.6884V61.6824V61.6763V61.6702V61.6641V61.658V61.6519V61.6458V61.6398V61.6337V61.6276V61.6215V61.6154V61.6093V61.6032V61.5971V61.5911V61.585V61.5789V61.5728V61.5667V61.5606V61.5545V61.5485V61.5424V61.5363V61.5302V61.5241V61.518V61.5119V61.5058V61.4998V61.4937V61.4876V61.4815V61.4754V61.4693V61.4632V61.4572V61.4511V61.445V61.4389V61.4328V61.4267V61.4206V61.4146V61.4085V61.4024V61.3963V61.3902V61.3841V61.378V61.3719V61.3659V61.3598V61.3537V61.3476V61.3415V61.3354V61.3293V61.3233V61.3172V61.3111V61.305V61.2989V61.2928V61.2867V61.2806V61.2746V61.2685V61.2624V61.2563V61.2502V61.2441V61.238V61.232V61.2259V61.2198V61.2137V61.2076V61.2015V61.1954V61.1893V61.1833V61.1772V61.1711V61.165V61.1589V61.1528V61.1467V61.1407V61.1346V61.1285V61.1224V61.1163V61.1102V61.1041V61.0981V61.092V61.0859V61.0798V61.0737V61.0676V61.0615V61.0554V61.0494V61.0433V61.0372V61.0311V61.025V61.0189V61.0128V61.0068V61.0007V60.9946V60.9885V60.9824V60.9763V60.9702V60.9641V60.9581V60.952V60.9459V60.9398V60.9337V60.9276V60.9215V60.9155V60.9094V60.9033V60.8972V60.8911V60.885V60.8789V60.8728V60.8668V60.8607V60.8546V60.8485V60.8424V60.8363V60.8302V60.8242V60.8181V60.812V60.8059V60.7998V60.7937V60.7876V60.7816V60.7755V60.7694V60.7633V60.7572V60.7511V60.745V60.7389V60.7329V60.7268V60.7207V60.7146V60.7085V60.7024V60.6963V60.6903V60.6842V60.6781V60.672V60.6659V60.6598V60.6537V60.6476V60.6416V60.6355V60.6294V60.6233V60.6172V60.6111V60.605V60.599V60.5929V60.5868V60.5807V60.5746V60.5685V60.5624V60.5564V60.5503V60.5442V60.5381V60.532V60.5259V60.5198V60.5137V60.5077V60.5016V60.4955V60.4894V60.4833V60.4772V60.4711V60.4651V60.459V60.4529V60.4468V60.4407V60.4346V60.4285V60.4224V60.4164V60.4103V60.4042V60.3981V60.392V60.3859V60.3798V60.3738V60.3677V60.3616V60.3555V60.3494V60.3433V60.3372V60.3312V60.3251V60.319V60.3129V60.3068V60.3007V60.2946V60.2885V60.2825V60.2764V60.2703V60.2642V60.2581V60.252V60.2459V60.2399V60.2338V60.2277V60.2216V60.2155V60.2094V60.2033V60.1972V60.1912V60.1851V60.179V60.1729V60.1668V60.1607V60.1546V60.1486V60.1425V60.1364V60.1303V60.1242V60.1181V60.112V60.1059V60.0999V60.0938V60.0877V60.0816V60.0755V60.0694V60.0633V60.0573V60.0512V60.0451V60.039V60.0329V60.0268V60.0207V60.0147V60.0086V60.0025V59.9964V59.9903V59.9842V59.9781V59.972V59.966V59.9599V59.9538V59.9477V59.9416V59.9355V59.9294V59.9234V59.9173V59.9112V59.9051V59.899V59.8929V59.8868V59.8807V59.8747V59.8686V59.8625V59.8564V59.8503V59.8442V59.8381V59.8321V59.826V59.8199V59.8138V59.8077V59.8016V59.7955V59.7895V59.7834V59.7773V59.7709V59.7646V59.7582V59.7518V59.7455V59.7391V59.7327V59.7264V59.72V59.7136V59.7073V59.7009V59.6946V59.6882V59.6818V59.6755V59.6691V59.6627V59.6564V59.65V59.6437V59.6373V59.6309V59.6246V59.6182V59.6118V59.6055V59.5991V59.5927V59.5864V59.58V59.5737V59.5673V59.5609V59.5546V59.5482V59.5418V59.5355V59.5291V59.5227V59.5164V59.51V59.5037V59.4973V59.4909V59.4846V59.4782V59.4718V59.4655V59.4591V59.4528V59.4464V59.44V59.4337V59.4273V59.4209V59.4146V59.4082V59.4018V59.3955V59.3891V59.3828V59.3764V59.37V59.3637V59.3573V59.3509V59.3446V59.3382V59.3319V59.3255V59.3191V59.3128V59.3064V59.3V59.2937V59.2873V59.2809V59.2746V59.2682V59.2619V59.2555V59.2491V59.2428V59.2364V59.23V59.2237V59.2173V59.211V59.2046V59.1982V59.1919V59.1855V59.1791V59.1728V59.1664V59.16V59.1537V59.1473V59.141V59.1346V59.1282V59.1219V59.1155V59.1091V59.1028V59.0964V59.0901V59.0837V59.0773V59.071V59.0646V59.0582V59.0519V59.0455V59.0391V59.0328V59.0264V59.0201V59.0137V59.0073V59.001V58.9946V58.9882V58.9819V58.9755V58.9692V58.9628V58.9564V58.9501V58.9437V58.9373V58.931V58.9246V58.9182V58.9119V58.9055V58.8992V58.8928V58.8864V58.8801V58.8737V58.8673V58.861V58.8546V58.8483V58.8419V58.8355V58.8292V58.8228V58.8164V58.8101V58.8037V58.7973V58.791V58.7846V58.7783V58.7719V58.7655V58.7592V58.7528V58.7464V58.7401V58.7337V58.7274V58.721V58.7146V58.7083V58.7019V58.6955V58.6892V58.6828V58.6764V58.6701V58.6637V58.6574V58.651V58.6446V58.6383V58.6319V58.6255V58.6192V58.6128V58.6065V58.6001V58.5937V58.5874V58.581V58.5746V58.5683V58.5619V58.5555V58.5492V58.5428V58.5365V58.5301V58.5237V58.5174V58.511V58.5046V58.4983V58.4919V58.4856V58.4792V58.4728V58.4665V58.4601V58.4537V58.4474V58.441V58.4346V58.4283V58.4219V58.4156V58.4092V58.4028V58.3965V58.3901V58.3837V58.3774V58.371V58.3647V58.3583V58.3519V58.3456V58.3392V58.3328V58.3265V58.3201V58.3137V58.3074V58.301V58.2947V58.2883V58.2819V58.2756V58.2692V58.2628V58.2565V58.2501V58.2438V58.2374V58.231V58.2247V58.2183V58.2119V58.2056V58.1992V58.1928V58.1865V58.1801V58.1738V58.1674V58.161V58.1547V58.1483V58.1419V58.1356V58.1292V58.1229V58.1165V58.1101V58.1038V58.0974V58.091V58.0847V58.0783V58.0719V58.0656V58.0592V58.0529V58.0465V58.0401V58.0338V58.0274V58.021V58.0147V58.0083V58.002V57.9956V57.9892V57.9829V57.9765V57.9701V57.9638V57.9574V57.951V57.9447V57.9383V57.932V57.9256V57.9192V57.9129V57.9065V57.9001V57.8938V57.8874V57.8811V57.8747V57.8683V57.862V57.8556V57.8492V57.8429V57.8365V57.8301V57.8238V57.8174V57.8111V57.8047V57.7983V57.792V57.7856V57.7792V57.7729V57.7665V57.7601V57.7538V57.7474V57.7411V57.7347V57.7283V57.722V57.7156V57.7092V57.7029V57.6965V57.6902V57.6838V57.6774V57.6711V57.6647V57.6583V57.652V57.6456V57.6392V57.6329V57.6265V57.6202V57.6138V57.6074V57.6011V57.5947V57.5883V57.582V57.5756V57.5693V57.5629V57.5565V57.5502V57.5438V57.5374V57.5311V57.5247V57.5183V57.512V57.5056V57.4993V57.4929V57.4865V57.4802V57.4738V57.4674V57.4611V57.4547V57.4484V57.442V57.4356V57.4293V57.4229V57.4165V57.4102V57.4038V57.3974V57.3911V57.3847V57.3784V57.372V57.3656V57.3593V57.3529V57.3465V57.3402V57.3338V57.3275V57.3211V57.3147V57.3084V57.302V57.2956V57.2893V57.2829V57.2765V57.2702V57.2638V57.2575V57.2511V57.2447V57.2384V57.232V57.2256V57.2193V57.2129V57.2066V57.2002V57.1938V57.1875V57.1811V57.1747V57.1684V57.162V57.1556V57.1493V57.1429V57.1366V57.1302V57.1238V57.1175V57.1111V57.1047V57.0984V57.092V57.0857V57.0793V57.0729V57.0666V57.0602V57.0538V57.0475V57.0411V57.0347V57.0284V57.022V57.0157V57.0093V57.0029V56.9966V56.9902V56.9838V56.9775V56.9711V56.9648V56.9584V56.952V56.9457V56.9393V56.9329V56.9266V56.9202V56.9138V56.9075V56.9011V56.8948V56.8884V56.882V56.8757V56.8693V56.8629V56.8566V56.8502V56.8439V56.8375V56.8311V56.8248V56.8184V56.812V56.8057V56.7993V56.7929V56.7866V56.7802V56.7739V56.7675V56.7611V56.7548V56.7484V56.742V56.7357V56.7293V56.723V56.7166V56.7102V56.7039V56.6975V56.6911V56.6848V56.6784V56.672V56.6657V56.6593V56.653V56.6466V56.6402V56.6339V56.6275V56.6211V56.6148V56.6084V56.6021V56.5957V56.5893V56.583V56.5766V56.5702V56.5639V56.5575V56.5511V56.5448V56.5384V56.5321V56.5257V56.5198C60.0929 56.0687 59.9908 55.7635 59.7978 55.5698C59.6051 55.3762 59.3026 55.2746 58.8528 55.2746H58.8522L58.8522 55.2746C57.4839 55.2658 56.1151 55.2658 54.7456 55.2746L54.745 64.1383ZM54.745 64.1383C54.2952 64.1383 53.9918 64.0362 53.7988 63.8424M54.745 64.1383L53.7988 63.8424M53.7988 63.8424C53.6057 63.6485 53.504 63.3434 53.5021 62.8932L53.7988 63.8424ZM57.8783 62.0435H57.9783V61.9435V57.475V57.375H57.8783H55.7044H55.6044V57.475V61.9435V62.0435H55.7044H57.8783Z" fill="#011F43" stroke="#011F43" stroke-width="0.2"/>
<path d="M40.3167 70.3398L40.7926 72.5439L38.5791 73.018C38.4204 72.2625 38.275 71.558 38.1201 70.812L40.3167 70.3398Z" fill="#011F43"/>
</svg>
