<svg width="16" height="10" viewBox="0 0 16 10" fill="none" xmlns="http://www.w3.org/2000/svg">
<path d="M15.131 3.29297V8.86045C15.1242 8.86609 15.1187 8.8726 15.1146 8.87972C14.9169 9.52223 14.4357 9.82738 13.6191 9.82738H1.69623C1.64749 9.82738 1.59874 9.82738 1.55039 9.82738C0.766577 9.80463 0.187883 9.32638 0.185544 8.69019C0.182944 6.92123 0.182944 5.15227 0.185544 3.38331C0.187466 3.35305 0.19137 3.32289 0.197242 3.29297C0.223759 3.30466 0.236237 3.30939 0.248716 3.31603L6.30355 6.59271C7.20864 7.08265 8.10514 7.08359 9.01179 6.59271C10.816 5.61746 12.6199 4.6417 14.4236 3.6654C14.6583 3.53936 14.897 3.41711 15.131 3.29297Z" fill="white"/>
<path d="M15.1313 2.01288C15.0756 2.13355 15.0459 2.26906 14.9582 2.37172C14.8389 2.51166 14.6985 2.65602 14.5269 2.74794C12.4992 3.85544 10.4654 4.95714 8.42568 6.05305C7.92303 6.32314 7.39269 6.32219 6.89043 6.05305C4.8481 4.9544 2.80929 3.85175 0.773983 2.7451C0.284979 2.47976 0.0825922 2.01856 0.237794 1.56211C0.396896 1.09397 0.890968 0.772395 1.50671 0.740807C1.55038 0.738596 1.59406 0.738281 1.63812 0.738281H13.678C14.3409 0.738281 14.8619 1.02732 15.0588 1.50304C15.0861 1.56969 15.1072 1.63792 15.1313 1.70521V2.01288Z" fill="white"/>
</svg>
