<svg width="16" height="13" viewBox="0 0 16 13" fill="none" xmlns="http://www.w3.org/2000/svg">
<path d="M11.4785 12.1273C11.1134 12.0676 10.7435 12.0213 10.3831 11.9449C9.64261 11.788 8.9536 11.5353 8.29016 11.244C6.40936 10.4176 4.80168 9.34178 3.37547 8.10409C2.45022 7.301 1.64182 6.4357 1.01817 5.47626C0.634417 4.88616 0.332087 4.27329 0.228755 3.61571C0.164126 3.20222 0.181653 2.79123 0.447834 2.41301C0.533045 2.29249 0.639694 2.18148 0.764769 2.08311C1.19928 1.74237 1.64949 1.4133 2.08545 1.07396C2.69048 0.601879 3.62997 0.651586 4.20103 1.07396C4.88201 1.57853 5.55203 2.09171 6.21876 2.60684C6.80662 3.06087 6.811 3.74095 6.22752 4.15499C6.09754 4.24396 5.94716 4.31399 5.78388 4.3616C5.37603 4.48378 5.05362 4.66984 4.87689 4.98224C4.76092 5.18413 4.74078 5.4104 4.81993 5.62233C5.03901 6.24076 5.49908 6.74977 6.05408 7.21519C6.63172 7.69949 7.28568 8.11215 8.06231 8.40012C8.40517 8.52702 8.75607 8.63977 9.15333 8.60034C9.68971 8.54702 10.0979 8.35041 10.3104 7.96164C10.4415 7.72088 10.5963 7.50038 10.8979 7.35682C11.4628 7.08801 12.1591 7.13688 12.6579 7.50622C13.3597 8.02606 14.0526 8.55294 14.7366 9.08686C15.2956 9.52506 15.2748 10.224 14.7077 10.6625C14.2601 11.0088 13.8048 11.3495 13.3538 11.6936C13.0343 11.9374 12.6414 12.061 12.1993 12.1065C12.1622 12.1119 12.1257 12.119 12.0897 12.1276L11.4785 12.1273Z" fill="white"/>
</svg>
